<?xml version="1.0" encoding="utf-8"?>
<!-- Generator: Adobe Illustrator 19.2.1, SVG Export Plug-In . SVG Version: 6.00 Build 0)  -->
<svg version="1.1" id="layer" xmlns="http://www.w3.org/2000/svg" xmlns:xlink="http://www.w3.org/1999/xlink" x="0px" y="0px"
	 viewBox="0 0 652 652" style="enable-background:new 0 0 652 652;" xml:space="preserve">
<style type="text/css">
	.st0{fill:#005999;}
	.st1{fill-rule:evenodd;clip-rule:evenodd;fill:#00699E;}
	.st2{fill-rule:evenodd;clip-rule:evenodd;fill:#00A3D6;}
	.st3{fill:#383330;}
</style>
<g>
	<path class="st0" d="M500.5,360.1c0-6.6,4.4-11.9,10.1-11.9c7.2,0,11,7.1,11,16.9c0,9.9-3.9,17.2-11.3,17.2
		c-4.9,0-9.8-3.9-9.8-11.8V360.1z M498.2,337.6h-12.7c0.2,5,0.4,10.9,0.4,18v59h14.6v-27.4h0.2c2.4,3.7,7,6.4,13,6.4
		c11.2,0,22.6-8.9,22.6-29.1c0-16.9-8.9-28.1-20.9-28.1c-7.1,0-12.7,3.1-16.3,8.7h-0.2L498.2,337.6z M458.1,392.5h14.6v-55h-14.6
		V392.5z M473.2,322.5c0-4.5-3.2-7.8-7.9-7.8c-4.5,0-7.8,3.3-7.8,7.8c0,4.4,3.2,7.8,7.8,7.8C469.9,330.4,473.2,327.3,473.2,322.5
		 M432.7,347.1l-0.6-9.6h-12.5c0.2,4.9,0.4,10.4,0.4,17.2v37.8h14.6v-28.4c0-9.4,5-13.8,11.6-13.8c1.5,0,2.7,0.1,3.8,0.3v-13.9
		c-1-0.2-1.9-0.3-3.3-0.3c-5.1,0-11.1,3.7-13.6,10.8H432.7z M360.2,316.6v12.6h18.7v63.3h14.6v-63.3h18.8v-12.6H360.2z M336.4,366.3
		c-0.8,3.4-1.7,7.3-2.3,10.3h-0.3c-0.7-3.1-1.7-6.9-2.6-10.3l-8.1-28.7h-16l18.5,50.5c0.4,1.1,0.6,1.9,0.6,2.5
		c0,1.1-2.5,6.7-7.3,10.2c-2.6,1.8-5.3,3.4-7.7,4l3.7,12.3c3.3-0.6,8.9-2.6,14.2-7.7c6.2-6.2,10.9-15.9,17-33.7l12.4-38.2h-15.2
		L336.4,366.3z M278.6,316.6l-8.6,28.5c-2.6,9.1-4.8,18.3-6.6,26.8h-0.3c-1.7-8.7-3.9-17.6-6.3-26.8l-8.2-28.5h-18.1l-5.1,75.9h13.3
		l1.5-29.2c0.5-9.4,1-20.6,1.2-30.2h0.3c1.8,9.3,4.2,19.6,6.6,28.1l8.4,30.2h11.1l9.3-30.7c2.6-8.5,5.3-18.6,7.5-27.6h0.3
		c-0.1,7.7,0.4,19.9,0.8,29.9l1.4,29.5h13.9l-4.3-75.9H278.6z M183.3,359.3c0.4-5.4,3.4-12.7,10.4-12.7c7.2,0,9.5,7,9.4,12.7H183.3z
		 M216.1,369.4c0.3-1.6,0.4-3.7,0.4-5.8c0-17.8-8.7-27.2-22-27.2c-16.1,0-25.2,13.6-25.2,29.4c0,17.1,9.7,27.8,26.7,27.8
		c6.8,0,13.2-1.2,17.8-3.2l-2.1-10.1c-3.8,1.3-8,2.3-13.4,2.3c-7.9,0-14.6-3.8-15-13.1H216.1z M125.2,389.9
		c3.7,2.2,9.5,3.7,15.5,3.7c13.7,0,21.6-6.9,21.6-17.4c0-7.6-4.3-12.9-13.6-16.8c-6.3-2.7-8.4-4.2-8.4-7.3c0-3,2.4-5.2,6.8-5.2
		c4.1,0,8,1.6,10.4,2.9l2.8-10.3c-3.2-1.7-8-3.1-13.6-3.1c-12.2,0-20.1,7.5-20.1,17.4c0,6,3.8,11.8,14,16c6,2.6,7.9,4.3,7.9,7.7
		c0,3.4-2.5,5.5-7.6,5.5c-4.5,0-10-2-12.8-3.7L125.2,389.9z M101.3,373.7c0,7-5.7,9.5-9.2,9.5c-3.7,0-6.9-2.3-6.9-7.5
		c0-8,8.2-9.9,16.1-9.9V373.7z M77.5,350.6c3.6-2.2,8.5-3.8,13.5-3.8c8,0,9.9,4.1,9.9,9.6c-17.5,0-30,6.6-30,20.7
		c0,8.9,6.3,16.5,16.5,16.5c6.1,0,11.5-2.5,14.6-6.8h0.3l0.9,5.7h13.1c-0.6-3.4-0.8-8.2-0.8-13v-20.1c0-12-4.6-22.9-21.7-22.9
		c-8.6,0-15.4,2.5-19.1,4.6L77.5,350.6z M36.2,380.3v-21.1h24.8v-11.9H36.2v-18.4h26.3v-12.2H21.6v75.9H64v-12.2H36.2z"/>
	<path class="st1" d="M116,344.7c40.2-81.2,150-19.1,210.9-73.3C266.2,334.8,146.1,281.3,116,344.7"/>
	<path class="st2" d="M258,222.5l142.5,11.8c6.9,0.4,5.8,1.8,2.4,5l-69.5,68.1c-3.9,4.3-4.8,3.1-9.4-2l-27.2-30.8
		c-3.6-3.8-4.2-4.6,2-6.8l67.6-21.8l-76.1,13.6c-5.7,1.2-5,2-9-3.7l-25.3-29C252.8,223.4,253.1,221.7,258,222.5"/>
	<path class="st1" d="M299,272.9l7.4,7.9c3.6,3.9,2.6,4-1.5,6.5l-23.5,11c-2.8,1.7-4.6,0.3-2.6-2.9l14.9-23.9
		C295.1,268.5,296.7,270.1,299,272.9"/>
	<path class="st3" d="M590.8,417.4c0.4,0,0.6-0.1,0.9-0.3c0.3-0.2,0.5-0.4,0.7-0.8c0.3-0.5,0.7-1.2,1.2-2.3c0.6-1,1.2-2.2,2-3.5
		c0.8-1.3,1.6-2.6,2.4-3.9c0.8-1.3,1.7-2.6,2.5-3.7c0.8-1.1,1.5-2,2.2-2.7c0.7-0.7,1.2-1.1,1.7-1.1c0.3,0,0.5,0.1,0.6,0.3
		c0.1,0.2,0.2,0.5,0.3,0.8c0.1,0.3,0.1,0.6,0.1,0.9v0.7c0,1.7-0.1,3.4-0.3,5.1c-0.2,1.7-0.3,3.4-0.3,5.1c0,0.7,0,1.5,0.1,2.4
		c0.1,0.9,0.2,1.7,0.5,2.5c0.3,0.8,0.7,1.5,1.2,2c0.5,0.5,1.3,0.8,2.2,0.8c1,0,2.1-0.3,3.3-1c1.2-0.7,2.3-1.5,3.4-2.4
		c1.1-0.9,2.2-1.9,3.1-3c1-1,1.7-2,2.3-2.7c0.1-0.2,0.2-0.3,0.4-0.6c0.1-0.2,0.2-0.4,0.2-0.6c0-0.3-0.1-0.6-0.2-0.8
		c-0.1-0.3-0.3-0.4-0.7-0.4c-0.4,0-0.7,0.2-1,0.5c-0.3,0.4-0.6,0.7-0.8,1c-0.4,0.5-0.9,1.1-1.6,1.9c-0.7,0.8-1.5,1.5-2.3,2.3
		c-0.8,0.7-1.7,1.4-2.5,1.9c-0.8,0.5-1.6,0.8-2.2,0.8c-0.4,0-0.7-0.1-1-0.4c-0.2-0.3-0.4-0.6-0.5-0.9c-0.1-0.4-0.1-0.7-0.1-1.1v-1
		c0-2.2,0.1-4.4,0.4-6.5c0.3-2.1,0.4-4.3,0.4-6.5c0-0.5-0.1-1.1-0.2-1.6c-0.1-0.6-0.3-1.1-0.6-1.5c-0.3-0.5-0.7-0.9-1.1-1.2
		c-0.5-0.3-1-0.5-1.6-0.5c-0.9,0-1.7,0.3-2.6,0.9s-1.5,1.2-2.1,1.8c-0.7,0.8-1.4,1.6-2,2.5c-0.6,0.9-1.2,1.8-1.8,2.6
		c-0.8,1.1-1.6,2.2-2.4,3.3c-0.8,1.1-1.5,2.2-2.2,3.4c-0.1,0.1-0.2,0.3-0.4,0.6s-0.3,0.5-0.4,0.5c-0.1,0-0.2-0.2-0.3-0.5
		c-0.1-0.3-0.1-0.7-0.1-1.2c0-0.4-0.1-0.9-0.1-1.3v-1c0-1.1,0-2.2,0.1-3.4c0-1.1,0.1-2.2,0.1-3.3c0-0.4,0-0.9-0.1-1.4
		c-0.1-0.5-0.2-1.1-0.3-1.6c-0.2-0.5-0.4-0.9-0.7-1.3c-0.3-0.3-0.7-0.5-1.3-0.5c-0.8,0-1.6,0.4-2.5,1.2c-0.9,0.8-1.8,1.8-2.7,2.8
		c-0.9,1.1-1.7,2.2-2.4,3.3c-0.7,1.1-1.3,2-1.7,2.6c0.2-1.1,0.4-2.2,0.7-3.3c0.3-1.1,0.6-2.2,1-3.2c0.2-0.4,0.3-0.8,0.6-1.4
		c0.2-0.5,0.5-1.1,0.7-1.6c0.2-0.6,0.4-1.1,0.6-1.6c0.2-0.5,0.2-1,0.2-1.4c0-0.4-0.1-0.8-0.3-1c-0.2-0.3-0.5-0.4-0.9-0.4
		c-0.8,0-1.6,0.2-2.5,0.6c-0.9,0.4-1.6,1-2,1.7c-0.2,0.5-0.5,1.3-0.8,2.4c-0.3,1.2-0.7,2.5-1,4c-0.3,1.5-0.7,3.1-1,4.8
		c-0.4,1.7-0.7,3.3-0.9,4.8c-0.3,1.5-0.5,2.9-0.7,4.2c-0.2,1.3-0.3,2.2-0.3,2.8c0,0.3,0.1,0.6,0.3,0.9c0.2,0.3,0.5,0.4,0.9,0.4
		c0.5,0,1-0.2,1.3-0.6c0.3-0.4,0.6-0.8,0.8-1.2c0.2-0.5,0.6-1.2,1.1-2.2c0.5-1,1.2-2.2,1.9-3.4c0.7-1.3,1.5-2.6,2.4-3.9
		c0.9-1.3,1.7-2.6,2.5-3.7c0.8-1.1,1.5-2,2.2-2.7c0.7-0.7,1.2-1.1,1.6-1.1c0.3,0,0.5,0.2,0.5,0.5c0,0.3,0.1,0.6,0.1,0.7v1.6v2.7
		c0,1,0,2,0.1,3.1c0,1.1,0.1,2.2,0.2,3.3c0.1,1.1,0.2,2.1,0.3,3c0.1,0.9,0.3,1.7,0.6,2.3C590.1,417.1,590.4,417.4,590.8,417.4
		 M564.2,399.6c1,0,1.8,0.5,2.2,1.4c0.5,1,0.7,2.1,0.8,3.5c0,1.8-0.2,3.4-0.6,4.8c-0.4,1.4-1,2.6-1.6,3.6c-0.7,1-1.4,1.7-2.2,2.3
		c-0.8,0.5-1.5,0.8-2.3,0.8c-0.8,0-1.5-0.4-2.1-1.2c-0.6-0.8-0.8-2-0.8-3.7c0-1.2,0.2-2.5,0.5-3.8c0.4-1.3,0.9-2.6,1.4-3.7
		c0.6-1.1,1.3-2.1,2.1-2.8C562.4,400,563.3,399.6,564.2,399.6 M553.4,411.1c0,2.6,0.6,4.6,1.6,5.8c1.1,1.2,2.4,1.9,3.9,1.9
		c1.2,0,2.4-0.3,3.7-1c1.3-0.7,2.4-1.7,3.5-3c1-1.3,1.9-2.9,2.6-4.8c0.7-1.9,1-4.1,1-6.6c0-1-0.1-2-0.4-3c-0.2-0.9-0.6-1.7-1-2.4
		c-0.4-0.7-1-1.2-1.7-1.6c-0.7-0.4-1.5-0.6-2.4-0.6c-1.6,0-3,0.5-4.4,1.4c-1.3,1-2.5,2.2-3.4,3.7c-0.9,1.5-1.7,3.2-2.2,4.9
		C553.7,407.7,553.4,409.4,553.4,411.1 M539.3,419c1.7,0,3.3-0.3,4.9-0.9c1.6-0.6,3.1-1.3,4.4-2.3c1.4-1,2.6-2.1,3.7-3.4
		c1.1-1.3,2.1-2.6,2.8-4c0.1-0.2,0.2-0.4,0.3-0.7c0.1-0.3,0.2-0.5,0.2-0.7c0-0.6-0.3-0.9-0.9-0.9c-0.4,0-0.7,0.2-1,0.5
		c-0.3,0.4-0.5,0.7-0.7,1c-0.6,1-1.3,2-2.1,3c-0.8,1-1.8,1.8-2.7,2.6c-1,0.8-2.1,1.4-3.2,1.9s-2.4,0.7-3.6,0.7c-1.2,0-2.2-0.4-3-1.2
		c-0.6-0.6-1-1.3-1.2-2.1c-0.3-0.8-0.4-1.7-0.4-2.7c0-1,0.1-2.1,0.3-3.2c0.2-1.1,0.5-2.2,0.9-3.2c0.4-1,0.8-2,1.3-2.8
		c0.5-0.8,1-1.5,1.4-2c0.4-0.4,0.9-0.8,1.3-1c0.5-0.3,1-0.4,1.5-0.4c0.7,0,1.1,0.2,1.2,0.7s0.2,1,0.2,1.5c0,0.9-0.2,1.7-0.5,2.3
		c-0.4,0.6-0.5,1.2-0.5,1.6c0,0.4,0.2,0.6,0.6,0.6c0.5,0,1-0.2,1.5-0.6c0.5-0.5,0.9-1.2,1.1-2.1c0.2-0.9,0.3-1.6,0.3-2.3
		c0-1.6-0.4-2.7-1.3-3.4c-0.8-0.7-2-1-3.4-1c-1.2,0-2.4,0.3-3.4,0.7c-1,0.5-2,1.2-2.8,2c-0.7,0.7-1.3,1.4-1.8,2.3
		c-0.6,0.9-1,1.9-1.4,2.9c-0.4,1-0.7,2.1-1,3.2c-0.2,1.1-0.3,2.2-0.3,3.4c0,1.5,0.2,3,0.7,4.4c0.4,1.4,1.2,2.6,2.2,3.6
		c0.5,0.5,1.2,1,1.9,1.3C537.4,418.8,538.3,419,539.3,419 M522.1,417.7c0.9,0,1.5-0.3,1.8-0.9c0.3-0.6,0.4-1.3,0.4-2.1
		c0-0.7-0.3-1.2-0.8-1.6c-0.5-0.4-1.1-0.7-1.7-0.7c-0.8,0-1.3,0.3-1.6,1c-0.3,0.7-0.4,1.3-0.4,2c0,0.7,0.2,1.2,0.7,1.7
		C520.8,417.5,521.4,417.7,522.1,417.7"/>
</g>
</svg>
