<?xml version="1.0" encoding="UTF-8" standalone="no"?>
<svg xmlns:dc="http://purl.org/dc/elements/1.1/" xmlns:cc="http://creativecommons.org/ns#" xmlns:rdf="http://www.w3.org/1999/02/22-rdf-syntax-ns#" xmlns:svg="http://www.w3.org/2000/svg" xmlns="http://www.w3.org/2000/svg" xmlns:sodipodi="http://sodipodi.sourceforge.net/DTD/sodipodi-0.dtd" xmlns:inkscape="http://www.inkscape.org/namespaces/inkscape" width="300" height="149" viewBox="0 0 2976 1489" version="1.0" id="svg2" sodipodi:version="0.32" inkscape:version="0.46" sodipodi:docname="LIC_Logo.svg" inkscape:output_extension="org.inkscape.output.svg.inkscape">
  <metadata id="metadata126">
    <rdf:RDF>
      <cc:Work rdf:about="">
        <dc:format>image/svg+xml</dc:format>
        <dc:type rdf:resource="http://purl.org/dc/dcmitype/StillImage"/>
      </cc:Work>
    </rdf:RDF>
  </metadata>
  <defs id="defs124">
    <inkscape:perspective sodipodi:type="inkscape:persp3d" inkscape:vp_x="0 : 930.625 : 1" inkscape:vp_y="0 : 1000 : 0" inkscape:vp_z="3720 : 930.625 : 1" inkscape:persp3d-origin="1860 : 620.41667 : 1" id="perspective128"/>
  </defs>
  <sodipodi:namedview inkscape:window-height="669" inkscape:window-width="640" inkscape:pageshadow="2" inkscape:pageopacity="0.0" guidetolerance="10.0" gridtolerance="10.0" objecttolerance="10.0" borderopacity="1.0" bordercolor="#666666" pagecolor="#ffffff" id="base" showgrid="false" inkscape:zoom="0.14623656" inkscape:cx="1860" inkscape:cy="930.625" inkscape:window-x="115" inkscape:window-y="95" inkscape:current-layer="svg2"/>
  <g id="#ffffffff">
    <path d="M 537.53,106.84 C 554,105.66 570.52,106.01 587.02,105.92 C 605.8,105.87 624.65,106.59 643.16,109.97 C 656.16,112.07 668.9,115.43 681.46,119.35 C 691.99,121.57 701.71,126.33 711.61,130.39 C 727.32,136.99 741.73,146.14 756.56,154.43 C 782.76,172.33 807.46,192.72 828.38,216.67 C 838.68,227.51 847.47,239.64 856.7,251.36 C 864.72,264.32 873.47,276.85 880.72,290.27 C 888.3,303.97 894.28,318.46 899.71,333.12 C 907.04,353.28 912.25,374.47 912.63,396.01 C 912.71,492.33 912.64,588.66 912.66,684.98 C 912.6,695.31 912.82,705.64 912.48,715.96 C 911.05,742.26 904.06,767.99 894.28,792.35 C 891.8,797.13 890.68,802.45 888.2,807.23 C 879.3,826.53 868.07,844.66 856.25,862.29 C 848.26,873.47 840.04,884.57 830.47,894.47 C 821.07,905.95 810.59,916.61 799.1,926.02 C 783.6,940.96 765.79,953.31 747.36,964.37 C 731.57,973.51 715.43,982.44 697.92,987.85 C 666.75,999.64 633.39,1005.58 600.06,1005.41 C 589.36,1005.21 578.69,1006.75 567.99,1005.94 C 556.65,1005.3 545.27,1005.56 533.94,1004.59 C 517.09,1003.51 500.41,1000.49 484.07,996.25 C 472.91,993.53 462.28,989.06 451.29,985.78 C 440.36,981.53 429.9,976.13 419.5,970.73 C 409.45,965.61 400.44,958.76 390.62,953.24 C 377.21,944.27 365.16,933.48 352.96,922.98 C 350.34,920.93 347.85,918.73 345.51,916.38 C 334.69,904.53 323.23,893.23 313.17,880.71 C 306.91,871.73 300.27,863.01 293.93,854.09 C 288.27,845.32 282.53,836.55 277.91,827.18 C 264.02,801.48 252.61,774.18 246.8,745.46 C 245.49,734.02 243.4,722.62 243.52,711.06 C 243.48,610.72 243.51,510.37 243.5,410.02 C 243.16,389.22 245.37,368.26 251.24,348.27 C 255.48,335.01 259.93,321.75 266.17,309.28 C 270.1,300.13 275.2,291.56 279.39,282.55 C 287.28,269.86 294.81,256.86 304.28,245.27 C 311.98,234.74 319.64,224.09 329.04,214.99 C 339.69,203.98 349.66,192.16 362.03,182.99 C 376.04,171.13 390.39,159.42 406.56,150.58 C 414.96,145 423.99,140.41 433.01,135.9 C 446.78,128.91 461.13,122.88 476.07,118.89 C 496.05,112.68 516.67,108.54 537.53,106.84 M 534.52,116.85 C 524.91,117.7 515.44,119.52 505.87,120.66 C 478.1,126.46 451.32,136.68 426.55,150.48 C 415.82,155.19 406.4,162.22 396.75,168.75 C 376.54,182.87 357.71,199 340.98,217.12 C 330.53,227.7 321.49,239.54 312.13,251.06 C 306.77,259.64 300.58,267.67 295.43,276.39 C 286.7,289.23 280.07,303.69 277.11,318.98 C 273.5,334.02 272.35,349.55 272.41,364.99 C 273.27,419.32 272.7,473.65 272.86,527.99 C 272.86,587.67 272.86,647.36 272.86,707.05 C 272.81,733.41 271.9,759.91 275.56,786.09 C 276.23,791.49 277.74,796.75 278.5,802.14 C 281.12,815.49 289.03,826.77 295.77,838.29 C 306.63,855.7 318.52,872.48 332.02,887.95 C 336.15,892.19 340.28,896.43 344.03,901.01 C 350.75,907.96 357.78,914.62 365.13,920.9 C 368.92,923.66 372.62,926.57 376.02,929.83 C 386.34,938.45 397.66,945.76 408.82,953.22 C 424.42,961.61 439.89,970.46 456.53,976.7 C 465.86,980.16 475.2,983.67 484.86,986.12 C 496.91,988.29 508.77,991.55 520.98,992.79 C 534.89,994.82 548.96,994.5 562.96,995.36 C 576.62,995.83 590.31,995.82 603.94,994.78 C 622.77,994.82 641.55,992.46 659.93,988.42 C 688.68,982.8 715.95,970.97 741.13,956.19 C 750.3,951.78 758.65,945.87 766.72,939.72 C 775.33,933.74 783.2,926.79 791.55,920.49 C 801.39,911 811.57,901.82 820.64,891.56 C 825.32,887.48 828.2,881.9 832.24,877.26 C 841.14,865.33 849.95,853.29 857.27,840.31 C 863.34,827.74 871.2,816.05 876.1,802.92 C 885.86,778.58 886.47,751.84 885.84,725.99 C 885.5,695 885.72,664.02 885.66,633.03 C 885.67,554.69 885.64,476.36 885.68,398.02 C 886.05,375.88 888.36,353.44 883.65,331.58 C 880.09,311.64 869.16,294.17 858.88,277.11 C 849.07,259.53 835.75,244.34 823.56,228.45 C 813.95,217.1 802.84,207.17 792.55,196.47 C 782.5,186.72 770.79,178.97 760.01,170.09 C 750.1,163.09 739.99,156.28 729.14,150.8 C 704.57,137.06 678.07,126.63 650.51,120.77 C 641.96,119.87 633.53,117.99 624.97,117.21 C 606.38,115.02 587.65,115.79 568.99,115.65 C 557.49,115.56 545.97,115.75 534.52,116.85 z" id="path5" style="opacity: 1; fill: rgb(255, 255, 255);"/>
    <path d="M 405.55,256.97 C 405.55,255.26 406.18,253.01 407.99,252.44 C 422.9,250.02 437.21,265.14 434.39,279.88 C 431.12,297.93 425.57,315.7 417.16,332.04 C 413.33,338.76 408.97,345.3 406.68,352.76 C 403.7,360.15 400.27,367.36 397.57,374.86 C 396.61,377.57 394.81,379.85 393.64,382.45 C 387.73,399.48 383.72,417.14 381.08,434.96 C 378.72,449.92 381.41,465.07 384.68,479.68 C 385.19,482.1 386.03,485.17 389.09,485.2 C 392.86,475.37 388.43,465.07 388.68,455.01 C 388.8,446.83 388.65,438.64 389.27,430.49 C 390.79,419.27 393.18,408.08 397.52,397.58 C 400.53,390.4 401.95,382.59 405.71,375.71 C 415.88,348.5 431.63,323.48 439.23,295.28 C 440.35,288.52 442.5,281.88 442.43,274.97 C 442.5,268.87 444.15,262.96 444.89,256.94 C 445.52,253.45 449.88,253.92 452.4,254.8 C 460.66,257.91 467.83,264.33 471.26,272.52 C 472.38,277.06 473.42,281.91 472.42,286.56 C 471.41,289.77 467.34,288.47 464.84,288.66 C 463.03,289.98 461.18,291.59 461.06,294.01 C 459.81,301.43 456.88,308.53 456.56,316.1 C 455.96,322.22 454.3,328.19 452.13,333.92 C 447.69,347.17 442.23,360.12 438.76,373.67 C 436.2,380.43 434.04,387.35 431.12,393.97 C 427.15,409.49 422.05,424.83 420.47,440.86 C 417.94,455.41 419.43,470.38 423.54,484.49 C 424.23,486.19 427.14,486.88 428.12,485.04 C 427.78,479.65 426.3,474.37 426.32,468.95 C 426.06,462.55 427.25,456.23 427.95,449.89 C 429.67,436.06 431.18,422.03 436.11,408.88 C 438.62,402.39 439.96,395.56 442.02,388.94 C 449.6,366 459.06,343.64 464.72,320.09 C 465.6,314.84 466.06,309.03 469.76,304.86 C 471.94,302.13 475.49,299.96 479.07,300.65 C 484.99,302.89 487.85,309.2 489.24,314.95 C 491.92,327.08 489.35,339.5 487.17,351.49 C 485.56,359.35 483.61,367.17 480.77,374.68 C 477.91,381.28 474.92,387.83 472.38,394.56 C 470.86,398.56 471.63,402.88 471.73,407.03 C 472.84,420.69 473.14,434.5 471.5,448.14 C 470.66,455.58 467.02,462.53 467.23,470.11 C 467.24,473.46 469.61,476.09 470.99,478.97 C 473.81,484.85 478.08,489.97 480.43,496.09 C 482.19,502.66 483.44,509.36 485.02,515.98 C 485.42,518.23 487.12,519.85 488.54,521.52 C 495.09,528.83 501.25,536.69 505.15,545.78 C 510.29,554.47 514.97,563.55 521.68,571.17 C 526.16,577.08 530.62,583 534.95,589.02 C 539.41,596.71 545.53,603.23 550.27,610.73 C 555.93,618.71 560.11,627.58 564.91,636.07 C 568.27,642.22 569.86,649.11 571.5,655.86 C 573.34,664.03 571.27,672.31 569.04,680.17 C 565.79,692.98 556.94,704 545.57,710.61 C 542.66,712.39 539.19,714.41 538.44,718.03 C 536.29,727.17 535.1,736.52 532.63,745.6 C 490.81,745.5 448.99,745.66 407.18,745.52 C 415.46,731.02 424.06,716.72 432.11,702.08 C 433.29,699.75 435.05,697.79 436.35,695.54 C 437.4,691.32 435.87,687.01 434.08,683.23 C 431.4,677.76 427.86,672.76 424.05,668.03 C 418.1,661.48 413.23,654.02 408.35,646.67 C 404.79,639.46 399.59,633.29 395.57,626.37 C 389.41,616.51 383.65,606.4 377.45,596.58 C 372.19,585.81 365.97,575.54 359.72,565.32 C 352.83,553.17 345.67,541.17 339.12,528.83 C 333.9,520.88 333.11,511.15 332.01,501.96 C 329.57,476.04 330.23,449.97 330.19,423.98 C 328.71,404.59 332.84,385.09 340.14,367.18 C 342.38,362.15 343.57,356.74 345.92,351.76 C 352.16,337.53 357.5,322.93 363.5,308.61 C 367.08,300.5 368.43,291.67 370.34,283.07 C 371.59,278.23 369.74,273.1 371.37,268.34 C 372.09,266.07 374.86,265.08 376.98,266.02 C 384.43,268.51 391.9,274.03 393.52,282.14 C 394.6,290.4 389.54,297.56 387.26,305.16 C 376.56,333.66 366.88,362.52 355.6,390.8 C 352.66,401.93 351.23,413.46 351.09,424.96 C 350.7,437.7 352.86,450.3 353.97,462.95 C 354.52,465.89 353.9,469.27 355.9,471.76 C 360.35,469.6 359.74,464.17 359.55,460.05 C 358.04,448.46 358.93,436.74 359.15,425.09 C 359.07,414.2 361.57,403.53 363.5,392.87 C 364.58,386.1 368.26,380.2 370.61,373.86 C 372.52,368.57 374.51,363.31 375.92,357.87 C 380.33,345.39 385.39,333.13 391.23,321.25 C 400.96,301.41 408.03,279.3 405.55,256.97 z" id="path7" style="opacity: 1; fill: rgb(255, 255, 255);"/>
    <path d="M 738.72,253.8 C 742.37,252.5 746.49,251.54 750.29,252.72 C 753.81,254.58 752.25,258.96 751.79,262.02 C 750.76,281.54 757.08,300.47 764.62,318.2 C 772.64,335.05 780.22,352.16 785.94,369.95 C 787.76,376.61 791.24,382.64 793.64,389.08 C 795.01,396.73 796.08,404.45 797.25,412.15 C 798.73,424.71 798.26,437.39 798.49,450.02 C 798.72,456.27 796.34,462.67 798.36,468.8 C 799,470.22 801.04,472.53 802.35,470.52 C 803.53,462.08 804.14,453.57 805.14,445.1 C 807.66,425.01 806.01,404.33 799.99,384.97 C 798.09,378.99 795.15,373.36 793.79,367.21 C 790.28,356.84 786.47,346.57 782.45,336.4 C 778.04,327.22 774.91,317.5 771.11,308.07 C 768.34,299.61 763.4,291.34 764.4,282.13 C 765.8,274.28 772.69,268.62 779.93,266.15 C 781.89,265.33 784.53,265.41 785.86,267.3 C 788.42,271.6 786.03,276.74 787.36,281.32 C 789.02,288.23 790.08,295.28 791.84,302.17 C 799.14,322.44 808.01,342.13 815.74,362.26 C 820.58,374.05 824.9,386.2 826.48,398.91 C 826.77,403.61 827.24,408.31 827.42,413.03 C 827.05,436.01 828.19,459.03 827,482.01 C 826.6,489.84 826.89,497.72 825.8,505.51 C 824.75,513.64 823.89,522.23 819.22,529.24 C 805.81,551.59 792.73,574.14 779.72,596.73 C 773.01,607.74 766.1,618.65 759.99,630 C 752.04,641.43 745,653.52 736.35,664.46 C 731.11,669.87 727.39,676.5 723.92,683.12 C 721.97,687.51 719.77,693.49 723.49,697.54 C 727.8,702.92 729.91,709.61 733.52,715.42 C 739.15,725.57 745.26,735.42 750.94,745.53 C 709.01,745.64 667.07,745.52 625.14,745.59 C 622.98,736.23 620.85,726.87 618.65,717.52 C 617.18,712.53 611.8,710.75 607.89,708.13 C 603.2,705.12 600.32,700.27 596.77,696.13 C 587.81,683.64 583.43,667.31 587.28,652.2 C 589.5,642.26 594.49,633.33 599.27,624.46 C 602.06,617.35 606.72,611.27 610.93,604.98 C 618.08,595.73 624.78,586.15 631.8,576.82 C 635.15,570.95 640.19,566.3 643.52,560.42 C 648.85,551.7 653.69,542.68 659.16,534.06 C 662.83,529.11 666.38,524.05 670.5,519.46 C 672.97,516.88 673.18,513.15 673.94,509.85 C 674.96,505.22 675.58,500.49 676.92,495.94 C 680.52,487.53 687.13,480.74 690.27,472.1 C 691.25,467.31 689.67,462.5 688.47,457.89 C 685.84,448.5 684.26,438.77 684.7,429 C 684.3,419.62 685.3,410.29 686.33,400.99 C 686.61,399.12 686.26,397.26 685.61,395.52 C 683.02,388.28 679.37,381.5 676.41,374.43 C 672.32,363.31 669.87,351.65 668.12,339.95 C 666.73,330.67 665.98,320.95 668.95,311.89 C 670.53,306.95 673.73,301.91 679,300.45 C 686.15,300.67 691.1,307.24 692.02,313.88 C 693.06,322.66 696.89,330.76 698.37,339.45 C 700.21,345.35 701.81,351.35 704.07,357.11 C 710.72,373.84 716.26,390.97 721.66,408.13 C 728.27,427.69 730.48,448.4 730.92,468.94 C 730.99,474.36 729.49,479.68 729.83,485.1 C 730.34,485.45 731.37,486.16 731.88,486.51 C 735.7,485.02 735.36,480.58 736.17,477.23 C 737.47,469.56 739.29,461.82 738.51,453.99 C 736.82,438.79 734.62,423.6 730.47,408.84 C 729.2,401.29 727.16,393.87 723.9,386.92 C 716.92,367.88 710.47,348.65 703.67,329.54 C 700.99,322.66 701.64,315.1 699.54,308.08 C 698.31,303.86 697.79,299.49 697.51,295.12 C 697.32,292.37 695.1,290.44 693.24,288.67 C 690.4,288.73 686.16,289.33 684.98,285.94 C 683.26,278.31 686.49,270.25 691.56,264.55 C 696,259.84 701.41,255.57 707.89,254.29 C 709.54,253.97 712.32,254.16 712.5,256.33 C 712.67,261.96 714.6,267.34 714.72,272.98 C 714.85,286.44 719.93,299.15 724.54,311.59 C 728.66,321.15 731.9,331.04 736.3,340.48 C 739.96,347.97 742.97,355.75 746.8,363.16 C 756.96,384.96 765.13,407.98 768.17,431.93 C 768.28,444.15 769.48,456.5 767.29,468.61 C 766.73,474.21 765.48,480.67 768.94,485.61 C 770.22,484.66 771.65,483.67 771.99,481.99 C 776.62,463.97 779.11,444.96 775.27,426.55 C 770.85,405.61 765.79,384.6 756.58,365.17 C 751.96,355.01 747.93,344.51 741.87,335.09 C 737.03,326.88 733.49,317.97 730.49,308.94 C 728.76,300.87 726.33,292.96 724.67,284.86 C 723.26,279.34 722.07,273.2 724.87,267.9 C 727.93,262.02 732.26,256.15 738.72,253.8 z" id="path9" style="opacity: 1; fill: rgb(255, 255, 255);"/>
    <path d="M 568.71,282.95 C 571.65,292.4 575.95,301.37 579.72,310.5 C 588.42,327.77 595.56,346.39 596.17,365.93 C 596.24,372.86 595.48,379.86 593.39,386.49 C 590.11,396.5 586.94,406.56 583.41,416.49 C 605.72,416.99 628.4,419.33 649.34,427.48 C 656.14,430.24 663.03,433.37 668.18,438.76 C 672.25,441.95 675.24,446.75 675.09,452.07 C 674.64,461.17 671.15,469.82 666.58,477.59 C 663.89,483.8 659.74,489.19 655.57,494.46 C 652.21,498.46 648.9,502.58 644.8,505.85 C 638.31,511.39 632.18,517.47 624.81,521.86 C 608.66,532.13 589.05,537.36 569.95,534.96 C 559.41,533.53 549.08,530.41 539.66,525.45 C 530.55,520.19 522,513.93 514.37,506.68 C 507.28,501.3 502.58,493.62 497.33,486.59 C 490.36,475.9 483.15,464.21 483.15,451.02 C 483.26,443.95 489.22,439.17 494.42,435.33 C 508.43,425.49 525.59,422.42 542.01,419.03 C 546.01,418.32 550.03,417.71 554.08,417.31 C 549.76,409.46 543.99,402.4 540.91,393.9 C 536.61,383.8 534.04,371.84 538.61,361.38 C 541.19,355.01 544.31,348.86 547.78,342.93 C 552.61,334.04 557.13,324.96 560.57,315.43 C 564.79,305.04 566.85,293.96 568.71,282.95 M 578.46,444.91 C 579.67,453.02 587.27,458.25 594.71,460.21 C 613.06,465.18 632.65,462.62 650.42,456.55 C 655.16,454.69 660.37,452.74 663.45,448.45 C 665.02,446.34 664.12,443.41 662.34,441.75 C 655.64,435.69 646.99,432.45 638.51,429.76 C 620.2,424.19 601.01,421.39 581.87,421.38 C 580.11,429.09 577.85,436.92 578.46,444.91 M 523.81,427.89 C 515.15,430.19 506.33,432.77 498.96,438.06 C 496.54,439.92 493.42,441.64 492.82,444.92 C 492.23,447.7 494.51,449.94 496.51,451.48 C 503.78,456.53 512.54,458.65 521.08,460.43 C 531.9,462.68 543.13,463.58 554.11,461.96 C 559.56,460.96 566,459.06 568.5,453.6 C 569.25,448.11 569.31,442.17 566.84,437.07 C 564.36,431.69 561.12,426.63 557.23,422.16 C 545.94,423.1 534.8,425.21 523.81,427.89 z" id="path11" style="opacity: 1; fill: rgb(255, 255, 255);"/>
    <path d="M 799.56,759.6 C 807.15,754.58 814.66,749.44 821.98,744.04 C 823.59,745.63 825.2,747.22 826.8,748.85 C 824.57,750.42 822.39,752.07 820.25,753.76 C 831.31,768.1 841.5,783.15 853.06,797.12 C 850.11,799.89 847.12,802.61 844.1,805.31 C 839.56,799.27 834.31,793.84 829.61,787.95 C 826.59,790.3 823.84,793.03 820.42,794.83 C 820.52,797.8 820.67,801.78 817.5,803.28 C 813.99,803.93 810.38,803.58 806.84,803.45 C 803.18,803.29 799.04,801.76 797.68,798.05 C 796.95,795.87 798.33,793.97 799.37,792.21 C 795.64,786.86 792.94,780.85 788.64,775.91 C 785.43,777.84 782.31,779.94 778.88,781.46 C 781.21,786.1 784,790.49 786.73,794.9 C 782.07,798.16 777.48,801.51 772.82,804.77 C 771.2,805.95 769.33,807.05 768.58,809.03 C 769.12,812.03 772.44,810.22 773.98,809.08 C 777.71,806.18 782.13,803.52 787.07,804.16 C 791.65,804.73 796.45,805.87 800.12,808.83 C 804.45,812.51 805.17,818.61 805.2,823.94 C 805.45,827.34 802.86,829.85 800.96,832.33 C 798.41,831.08 795.87,829.82 793.44,828.37 C 793.74,825.62 794.43,822.54 792.97,820.02 C 791.28,817.26 787.59,816.92 784.76,817.76 C 780.95,819.04 778.92,822.89 777.56,826.41 C 776.43,830.62 778.42,835.74 782.55,837.52 C 785.61,839.22 789.18,838.63 792.46,838.04 C 793.38,841.2 794.06,844.43 794.6,847.69 C 786.23,849.53 776.18,849.66 769.5,843.47 C 764.74,838.35 763.41,830.76 764.11,824 C 760.22,821.34 755.67,818.85 753.84,814.24 C 752.76,809.85 752.96,804.68 756.16,801.18 C 759.74,797.58 764.07,794.87 768.27,792.06 C 767.69,791.23 767.12,790.4 766.57,789.57 C 764.17,790.84 761.88,792.32 759.42,793.46 C 752.93,795.96 746.87,799.43 740.41,802 C 744.74,811.74 748.98,821.53 753.61,831.14 C 756.85,838.82 760.78,846.23 763.32,854.19 C 759.85,855.97 756.24,857.47 752.55,858.71 C 749.91,854.35 747.79,849.7 745.27,845.28 C 741.24,851.68 733.43,854.93 726.01,854.03 C 722.36,853.51 718.54,853.59 715.13,852.06 C 708.17,849.11 702.93,843.3 698.81,837.13 C 700.23,835.42 701.39,833.23 703.75,832.7 C 707.42,831.72 709.83,827.64 709.2,823.96 C 708.34,820.53 705.08,818.69 702.11,817.33 C 697.83,819.05 693.34,820.12 688.92,821.38 C 690.85,828.31 693.3,835.09 695.26,842.02 C 696.64,841.47 698.02,840.9 699.41,840.35 C 702.39,844.25 704.89,848.49 707.78,852.45 C 705.11,853.58 702.42,854.64 699.75,855.74 C 699.09,858.78 698.51,863.15 694.89,863.97 C 689.59,863.05 684.97,860.04 680.2,857.74 C 677.76,856.64 675.92,853.65 676.96,851.02 C 677.69,847.98 680.94,846.9 683.19,845.2 C 680.69,838.38 678.57,831.42 675.92,824.67 C 672.33,825.53 668.68,826.16 665.01,826.58 C 668.43,844.7 673.99,862.37 678.3,880.3 C 674.06,881.17 669.79,881.9 665.53,882.72 C 661.43,864.69 655.86,847.04 651.33,829.12 C 648.61,829.61 645.9,830.09 643.21,830.64 C 643.95,836.07 644.86,841.48 645.57,846.93 C 639.49,848.04 633.46,849.39 627.43,850.73 C 625.53,851.06 624.65,852.93 623.97,854.52 C 629.11,856.74 633.86,852.47 639.06,853.25 C 643.23,853.26 646.45,856.24 649.84,858.26 C 653.81,860.67 656.21,865.41 655.71,870.05 C 655.12,876.34 652.87,883.49 646.42,885.99 C 644.36,883.58 642.25,881.22 640.07,878.94 C 641.54,876.45 643.48,873.88 643.23,870.84 C 642.42,866.26 636.33,864.44 632.64,866.75 C 628.04,869.32 623.34,874.4 625.04,880.09 C 626.62,885.19 632.05,887.27 636.74,888.55 C 636.08,891.56 635.53,894.6 635.1,897.66 C 627.98,896.3 620.75,893.7 615.55,888.48 C 610.24,881.53 610.89,871.4 615.27,864.14 C 612.3,860.22 608.09,856.31 608.52,850.96 C 609.62,846.17 612.38,841.13 617.32,839.48 C 621.93,838.08 626.8,837.91 631.55,837.19 C 631.03,835.55 630.53,833.93 630.05,832.31 C 619.67,833.76 609.23,834.52 598.82,835.59 C 600.67,853.83 600.7,872.19 602.46,890.44 C 598.25,890.64 594.05,890.84 589.87,891.26 C 589.62,887.9 589.42,884.54 589.21,881.19 C 583.37,883.08 576.85,883.37 571.16,880.81 C 564.28,877.58 558.2,870.97 558.16,863.01 C 557.86,855.73 563.09,849.51 568.99,845.9 C 573.8,842.76 579.72,842.96 585.19,842.27 C 585.2,840.3 585.21,838.33 585.23,836.38 C 578.06,836.23 570.91,836.84 563.76,837.23 C 563.52,834.55 563.27,831.87 563.03,829.2 C 577,828.33 591.01,828 604.95,826.6 C 623.09,825.91 641.01,822.68 658.83,819.4 C 674.24,816.1 689.67,812.65 704.54,807.39 C 710.5,805.08 716.4,802.61 722.35,800.27 C 728.08,798.15 733.41,795.07 739.27,793.26 C 760.22,783.66 780.01,771.74 799.56,759.6 M 800.08,767.85 C 804.13,773.2 807.83,778.82 812.05,784.05 C 815.13,781.67 818.07,779.13 821.14,776.75 C 817.22,771.8 813.33,766.8 809.1,762.12 C 806.13,764.1 803.15,766.04 800.08,767.85 M 720.33,811.42 C 720.61,814.98 723.19,818.19 723.53,821.89 C 724.83,827.21 721.87,832.36 718.15,835.94 C 719.89,838.24 721.96,840.64 724.99,841.13 C 727.3,841.9 729.31,840.23 731.24,839.21 C 735.48,836.9 737.27,831.44 736.27,826.9 C 733.4,820.79 730.24,814.82 728.07,808.41 C 725.42,809.21 722.69,809.92 720.33,811.42 M 571.46,859.37 C 569.07,862.83 571.55,867.41 574.97,869.07 C 578.76,871.53 583.54,870.77 587.51,869.17 C 587.33,864.61 587.03,860.07 586.64,855.53 C 581.35,854.26 575.08,854.86 571.46,859.37 z" id="path13" style="opacity: 1; fill: rgb(255, 255, 255);"/>
    <path d="M 329.62,762.24 C 331.79,759.99 333.86,757.64 335.89,755.27 C 339.01,756.99 341.58,759.48 344.47,761.51 C 350.19,764.31 355.45,767.91 360.96,771.09 C 366.79,774.63 372.84,777.83 378.53,781.61 C 377.54,775.66 376.31,769.76 375.38,763.8 C 379.12,765.59 382.81,767.49 386.54,769.31 C 388.04,775.24 389.23,781.25 390.66,787.2 C 406.3,794.92 422.52,801.39 438.75,807.75 C 437.65,810.68 436.58,813.63 435.43,816.55 C 433.84,816 432.26,815.48 430.67,814.97 C 424.31,831.86 418.32,848.89 412.03,865.8 C 408.13,864.22 404.34,862.36 400.37,860.97 C 402.41,856.08 404.27,851.13 406.11,846.17 C 409.59,833.82 415.16,822.2 419.34,810.09 C 416.65,809.1 413.99,808.04 411.35,806.96 C 410.52,816.21 409.01,826.35 402.46,833.44 C 399.01,837.04 394.16,840.43 388.91,839.31 C 383.45,837.91 380.57,832.22 379.9,827.02 C 379.15,823.55 381.3,820.01 384.4,818.53 C 388.32,816.05 393.25,818.85 395.73,822.13 C 401.02,816.69 400.2,807.9 397.82,801.31 C 394.81,799.33 391.41,798.04 388.21,796.42 C 383.57,805.71 378.22,814.66 374.1,824.2 C 370.17,831.1 366.5,838.15 362.89,845.23 C 359.17,843.45 355.52,841.52 351.78,839.78 C 354.72,832.42 359.2,825.82 362.72,818.75 C 367.43,809.54 372.58,800.55 376.86,791.13 C 374.67,789.7 372.42,788.39 370.1,787.2 C 360.81,802.6 351.92,818.26 342.71,833.71 C 339.1,831.53 335.32,829.67 331.86,827.27 C 335.22,822.93 337.7,818.01 340.72,813.44 C 333.71,813.79 325.7,812.84 320.78,807.26 C 314.17,798.75 315.07,786.61 319.65,777.37 C 323.97,777.15 328.62,778.65 332.72,776.81 C 336.43,775 336.88,770.46 336.65,766.82 C 334.36,765.21 332.03,763.66 329.62,762.24 M 347.66,774.22 C 347.18,778.21 345.68,782.02 343.19,785.18 C 340.49,789.21 335.09,789.46 330.71,789.68 C 330.29,791.36 329.18,793.14 330.03,794.89 C 332.01,801.03 340.69,803.85 345.78,799.88 C 350.3,793.8 353.98,787.15 358.04,780.77 C 354.79,778.26 351.18,776.3 347.66,774.22 z" id="path15" style="opacity: 1; fill: rgb(255, 255, 255);"/>
    <path d="M 861.8,797.82 C 863.7,796.56 865.97,797.72 866.18,799.97 C 862.6,802.8 859.66,806.35 856.04,809.12 C 854.23,810.61 851.81,810.42 849.63,810.42 C 849.39,808.53 848.31,805.74 850.66,804.77 C 854.46,802.59 858.07,800.11 861.8,797.82 z" id="path17" style="opacity: 1; fill: rgb(255, 255, 255);"/>
    <path d="M 470.73,803.64 C 475.01,804.94 479.38,805.9 483.75,806.88 C 486.53,811.32 488.99,815.97 491.86,820.35 C 508.12,826.03 525.66,826 542.67,827.46 C 542.41,830.67 542.46,833.93 541.72,837.08 C 540.14,837.19 538.57,837.21 537,837.28 C 536.03,854.88 534.41,872.45 532.63,889.99 C 528.58,889.53 524.56,888.94 520.53,888.39 C 520.71,881.7 521.13,875.01 521.42,868.32 C 517.28,867.19 512.97,867.08 508.74,866.55 C 508.08,869.81 506.18,872.99 503.13,874.5 C 500.68,874.15 499.13,872.05 497.44,870.49 C 493.96,867 490.36,863.06 489.5,858.06 C 489.06,853.56 493.26,850.01 497.63,850.67 C 498.44,844.32 499.26,837.97 499.97,831.61 C 495.87,831.14 491.88,830.08 487.89,829.08 C 484.24,847.01 480.24,864.86 476.46,882.77 C 472.36,881.91 468.25,881.09 464.13,880.34 C 466.39,868.59 469.05,856.92 471.38,845.19 C 465.05,843.39 458.64,841.8 452.46,839.53 C 446.23,836.9 438.34,843.38 439.93,850.04 C 440.59,852.48 443.06,853.78 445.22,854.69 C 449.37,856.32 453.43,853.46 457.32,852.31 C 459.27,854.73 461.19,857.2 463.41,859.41 C 461.46,862.65 455.96,863.56 456.34,867.92 C 456.17,870.95 456.18,873.99 456.12,877.04 C 452.19,876.78 448.42,875.57 444.64,874.56 C 444.56,872.58 444.49,870.62 444.37,868.66 C 438.33,866.87 433.17,862.55 429.51,857.51 C 426.37,852.09 426.13,844.88 429.57,839.52 C 432.62,834.73 436.67,830.17 442.16,828.21 C 438.6,824.82 439.37,819.45 439.94,815.05 C 442.68,806.1 454.84,802.55 462.4,807.69 C 468.01,811.21 470.39,818.84 467.94,824.96 C 466.69,827.54 464.58,829.53 462.55,831.5 C 466.13,832.29 469.72,833.08 473.3,833.92 C 473.83,831.36 474.39,828.81 474.88,826.24 C 474.04,826.19 472.34,826.08 471.49,826.03 C 471.62,822.73 472.35,819.52 473.5,816.44 C 475.01,816.77 476.55,817.14 478.09,817.48 C 475.78,812.78 472.52,808.59 470.73,803.64 M 451.42,820.87 C 452.03,822.89 454.37,823.13 456.15,823.45 C 457.21,821.71 458.54,819.15 456.68,817.44 C 454.65,814.93 450.14,818.01 451.42,820.87 M 513.03,834.28 C 512.3,840.39 511,846.42 510.06,852.5 C 514.37,853.13 518.72,853.49 523.08,853.34 C 523.28,847.4 523.52,841.47 523.76,835.54 C 520.2,834.97 516.62,834.59 513.03,834.28 z" id="path19" style="opacity: 1; fill: rgb(255, 255, 255);"/>
    <path d="M 528.54,808.72 C 531.84,806.15 537.65,808.54 536.95,813.06 C 537.27,817.02 532.59,819.67 529.28,817.62 C 525.84,816.14 525.05,810.6 528.54,808.72 z" id="path21" style="opacity: 1; fill: rgb(255, 255, 255);"/>
  </g>
  <g id="#024282ff">
    <path d="M 20.91,25.91 C 29.28,17.4 40.93,11.86 53,12.17 C 417.35,12.18 781.71,12.12 1146.06,12.2 C 1146.07,341.46 1146.07,670.71 1146.08,999.98 C 1145.94,1033.36 1146.34,1066.74 1145.88,1100.11 C 782.25,1100.08 418.63,1100.11 55,1100.1 C 46.87,1100.16 38.63,1098.58 31.57,1094.41 C 20.61,1088.28 12.84,1076.9 10.75,1064.55 C 10.01,1059.72 10.23,1054.83 10.2,1049.97 C 10.21,718.31 10.18,386.64 10.21,54.98 C 9.88,44.32 14.32,34.09 20.91,25.91 M 537.53,106.84 C 516.67,108.54 496.05,112.68 476.07,118.89 C 461.13,122.88 446.78,128.91 433.01,135.9 C 423.99,140.41 414.96,145 406.56,150.58 C 390.39,159.42 376.04,171.13 362.03,182.99 C 349.66,192.16 339.69,203.98 329.04,214.99 C 319.64,224.09 311.98,234.74 304.28,245.27 C 294.81,256.86 287.28,269.86 279.39,282.55 C 275.2,291.56 270.1,300.13 266.17,309.28 C 259.93,321.75 255.48,335.01 251.24,348.27 C 245.37,368.26 243.16,389.22 243.5,410.02 C 243.51,510.37 243.48,610.72 243.52,711.06 C 243.4,722.62 245.49,734.02 246.8,745.46 C 252.61,774.18 264.02,801.48 277.91,827.18 C 282.53,836.55 288.27,845.32 293.93,854.09 C 300.27,863.01 306.91,871.73 313.17,880.71 C 323.23,893.23 334.69,904.53 345.51,916.38 C 347.85,918.73 350.34,920.93 352.96,922.98 C 365.16,933.48 377.21,944.27 390.62,953.24 C 400.44,958.76 409.45,965.61 419.5,970.73 C 429.9,976.13 440.36,981.53 451.29,985.78 C 462.28,989.06 472.91,993.53 484.07,996.25 C 500.41,1000.49 517.09,1003.51 533.94,1004.59 C 545.27,1005.56 556.65,1005.3 567.99,1005.94 C 578.69,1006.75 589.36,1005.21 600.06,1005.41 C 633.39,1005.58 666.75,999.64 697.92,987.85 C 715.43,982.44 731.57,973.51 747.36,964.37 C 765.79,953.31 783.6,940.96 799.1,926.02 C 810.59,916.61 821.07,905.95 830.47,894.47 C 840.04,884.57 848.26,873.47 856.25,862.29 C 868.07,844.66 879.3,826.53 888.2,807.23 C 890.68,802.45 891.8,797.13 894.28,792.35 C 904.06,767.99 911.05,742.26 912.48,715.96 C 912.82,705.64 912.6,695.31 912.66,684.98 C 912.64,588.66 912.71,492.33 912.63,396.01 C 912.25,374.47 907.04,353.28 899.71,333.12 C 894.28,318.46 888.3,303.97 880.72,290.27 C 873.47,276.85 864.72,264.32 856.7,251.36 C 847.47,239.64 838.68,227.51 828.38,216.67 C 807.46,192.72 782.76,172.33 756.56,154.43 C 741.73,146.14 727.32,136.99 711.61,130.39 C 701.71,126.33 691.99,121.57 681.46,119.35 C 668.9,115.43 656.16,112.07 643.16,109.97 C 624.65,106.59 605.8,105.87 587.02,105.92 C 570.52,106.01 554,105.66 537.53,106.84 z" id="path24" style="opacity: 1; fill: rgb(2, 66, 130);"/>
    <path d="M 534.52,116.85 C 545.97,115.75 557.49,115.56 568.99,115.65 C 587.65,115.79 606.38,115.02 624.97,117.21 C 633.53,117.99 641.96,119.87 650.51,120.77 C 678.07,126.63 704.57,137.06 729.14,150.8 C 739.99,156.28 750.1,163.09 760.01,170.09 C 770.79,178.97 782.5,186.72 792.55,196.47 C 802.84,207.17 813.95,217.1 823.56,228.45 C 835.75,244.34 849.07,259.53 858.88,277.11 C 869.16,294.17 880.09,311.64 883.65,331.58 C 888.36,353.44 886.05,375.88 885.68,398.02 C 885.64,476.36 885.67,554.69 885.66,633.03 C 885.72,664.02 885.5,695 885.84,725.99 C 886.47,751.84 885.86,778.58 876.1,802.92 C 871.2,816.05 863.34,827.74 857.27,840.31 C 849.95,853.29 841.14,865.33 832.24,877.26 C 828.2,881.9 825.32,887.48 820.64,891.56 C 811.57,901.82 801.39,911 791.55,920.49 C 783.2,926.79 775.33,933.74 766.72,939.72 C 758.65,945.87 750.3,951.78 741.13,956.19 C 715.95,970.97 688.68,982.8 659.93,988.42 C 641.55,992.46 622.77,994.82 603.94,994.78 C 590.31,995.82 576.62,995.83 562.96,995.36 C 548.96,994.5 534.89,994.82 520.98,992.79 C 508.77,991.55 496.91,988.29 484.86,986.12 C 475.2,983.67 465.86,980.16 456.53,976.7 C 439.89,970.46 424.42,961.61 408.82,953.22 C 397.66,945.76 386.34,938.45 376.02,929.83 C 372.62,926.57 368.92,923.66 365.13,920.9 C 357.78,914.62 350.75,907.96 344.03,901.01 C 340.28,896.43 336.15,892.19 332.02,887.95 C 318.52,872.48 306.63,855.7 295.77,838.29 C 289.03,826.77 281.12,815.49 278.5,802.14 C 277.74,796.75 276.23,791.49 275.56,786.09 C 271.9,759.91 272.81,733.41 272.86,707.05 C 272.86,647.36 272.86,587.67 272.86,527.99 C 272.7,473.65 273.27,419.32 272.41,364.99 C 272.35,349.55 273.5,334.02 277.11,318.98 C 280.07,303.69 286.7,289.23 295.43,276.39 C 300.58,267.67 306.77,259.64 312.13,251.06 C 321.49,239.54 330.53,227.7 340.98,217.12 C 357.71,199 376.54,182.87 396.75,168.75 C 406.4,162.22 415.82,155.19 426.55,150.48 C 451.32,136.68 478.1,126.46 505.87,120.66 C 515.44,119.52 524.91,117.7 534.52,116.85 M 405.55,256.97 C 408.03,279.3 400.96,301.41 391.23,321.25 C 385.39,333.13 380.33,345.39 375.92,357.87 C 374.51,363.31 372.52,368.57 370.61,373.86 C 368.26,380.2 364.58,386.1 363.5,392.87 C 361.57,403.53 359.07,414.2 359.15,425.09 C 358.93,436.74 358.04,448.46 359.55,460.05 C 359.74,464.17 360.35,469.6 355.9,471.76 C 353.9,469.27 354.52,465.89 353.97,462.95 C 352.86,450.3 350.7,437.7 351.09,424.96 C 351.23,413.46 352.66,401.93 355.6,390.8 C 366.88,362.52 376.56,333.66 387.26,305.16 C 389.54,297.56 394.6,290.4 393.52,282.14 C 391.9,274.03 384.43,268.51 376.98,266.02 C 374.86,265.08 372.09,266.07 371.37,268.34 C 369.74,273.1 371.59,278.23 370.34,283.07 C 368.43,291.67 367.08,300.5 363.5,308.61 C 357.5,322.93 352.16,337.53 345.92,351.76 C 343.57,356.74 342.38,362.15 340.14,367.18 C 332.84,385.09 328.71,404.59 330.19,423.98 C 330.23,449.97 329.57,476.04 332.01,501.96 C 333.11,511.15 333.9,520.88 339.12,528.83 C 345.67,541.17 352.83,553.17 359.72,565.32 C 365.97,575.54 372.19,585.81 377.45,596.58 C 383.65,606.4 389.41,616.51 395.57,626.37 C 399.59,633.29 404.79,639.46 408.35,646.67 C 413.23,654.02 418.1,661.48 424.05,668.03 C 427.86,672.76 431.4,677.76 434.08,683.23 C 435.87,687.01 437.4,691.32 436.35,695.54 C 435.05,697.79 433.29,699.75 432.11,702.08 C 424.06,716.72 415.46,731.02 407.18,745.52 C 448.99,745.66 490.81,745.5 532.63,745.6 C 535.1,736.52 536.29,727.17 538.44,718.03 C 539.19,714.41 542.66,712.39 545.57,710.61 C 556.94,704 565.79,692.98 569.04,680.17 C 571.27,672.31 573.34,664.03 571.5,655.86 C 569.86,649.11 568.27,642.22 564.91,636.07 C 560.11,627.58 555.93,618.71 550.27,610.73 C 545.53,603.23 539.41,596.71 534.95,589.02 C 530.62,583 526.16,577.08 521.68,571.17 C 514.97,563.55 510.29,554.47 505.15,545.78 C 501.25,536.69 495.09,528.83 488.54,521.52 C 487.12,519.85 485.42,518.23 485.02,515.98 C 483.44,509.36 482.19,502.66 480.43,496.09 C 478.08,489.97 473.81,484.85 470.99,478.97 C 469.61,476.09 467.24,473.46 467.23,470.11 C 467.02,462.53 470.66,455.58 471.5,448.14 C 473.14,434.5 472.84,420.69 471.73,407.03 C 471.63,402.88 470.86,398.56 472.38,394.56 C 474.92,387.83 477.91,381.28 480.77,374.68 C 483.61,367.17 485.56,359.35 487.17,351.49 C 489.35,339.5 491.92,327.08 489.24,314.95 C 487.85,309.2 484.99,302.89 479.07,300.65 C 475.49,299.96 471.94,302.13 469.76,304.86 C 466.06,309.03 465.6,314.84 464.72,320.09 C 459.06,343.64 449.6,366 442.02,388.94 C 439.96,395.56 438.62,402.39 436.11,408.88 C 431.18,422.03 429.67,436.06 427.95,449.89 C 427.25,456.23 426.06,462.55 426.32,468.95 C 426.3,474.37 427.78,479.65 428.12,485.04 C 427.14,486.88 424.23,486.19 423.54,484.49 C 419.43,470.38 417.94,455.41 420.47,440.86 C 422.05,424.83 427.15,409.49 431.12,393.97 C 434.04,387.35 436.2,380.43 438.76,373.67 C 442.23,360.12 447.69,347.17 452.13,333.92 C 454.3,328.19 455.96,322.22 456.56,316.1 C 456.88,308.53 459.81,301.43 461.06,294.01 C 461.18,291.59 463.03,289.98 464.84,288.66 C 467.34,288.47 471.41,289.77 472.42,286.56 C 473.42,281.91 472.38,277.06 471.26,272.52 C 467.83,264.33 460.66,257.91 452.4,254.8 C 449.88,253.92 445.52,253.45 444.89,256.94 C 444.15,262.96 442.5,268.87 442.43,274.97 C 442.5,281.88 440.35,288.52 439.23,295.28 C 431.63,323.48 415.88,348.5 405.71,375.71 C 401.95,382.59 400.53,390.4 397.52,397.58 C 393.18,408.08 390.79,419.27 389.27,430.49 C 388.65,438.64 388.8,446.83 388.68,455.01 C 388.43,465.07 392.86,475.37 389.09,485.2 C 386.03,485.17 385.19,482.1 384.68,479.68 C 381.41,465.07 378.72,449.92 381.08,434.96 C 383.72,417.14 387.73,399.48 393.64,382.45 C 394.81,379.85 396.61,377.57 397.57,374.86 C 400.27,367.36 403.7,360.15 406.68,352.76 C 408.97,345.3 413.33,338.76 417.16,332.04 C 425.57,315.7 431.12,297.93 434.39,279.88 C 437.21,265.14 422.9,250.02 407.99,252.44 C 406.18,253.01 405.55,255.26 405.55,256.97 M 738.72,253.8 C 732.26,256.15 727.93,262.02 724.87,267.9 C 722.07,273.2 723.26,279.34 724.67,284.86 C 726.33,292.96 728.76,300.87 730.49,308.94 C 733.49,317.97 737.03,326.88 741.87,335.09 C 747.93,344.51 751.96,355.01 756.58,365.17 C 765.79,384.6 770.85,405.61 775.27,426.55 C 779.11,444.96 776.62,463.97 771.99,481.99 C 771.65,483.67 770.22,484.66 768.94,485.61 C 765.48,480.67 766.73,474.21 767.29,468.61 C 769.48,456.5 768.28,444.15 768.17,431.93 C 765.13,407.98 756.96,384.96 746.8,363.16 C 742.97,355.75 739.96,347.97 736.3,340.48 C 731.9,331.04 728.66,321.15 724.54,311.59 C 719.93,299.15 714.85,286.44 714.72,272.98 C 714.6,267.34 712.67,261.96 712.5,256.33 C 712.32,254.16 709.54,253.97 707.89,254.29 C 701.41,255.57 696,259.84 691.56,264.55 C 686.49,270.25 683.26,278.31 684.98,285.94 C 686.16,289.33 690.4,288.73 693.24,288.67 C 695.1,290.44 697.32,292.37 697.51,295.12 C 697.79,299.49 698.31,303.86 699.54,308.08 C 701.64,315.1 700.99,322.66 703.67,329.54 C 710.47,348.65 716.92,367.88 723.9,386.92 C 727.16,393.87 729.2,401.29 730.47,408.84 C 734.62,423.6 736.82,438.79 738.51,453.99 C 739.29,461.82 737.47,469.56 736.17,477.23 C 735.36,480.58 735.7,485.02 731.88,486.51 C 731.37,486.16 730.34,485.45 729.83,485.1 C 729.49,479.68 730.99,474.36 730.92,468.94 C 730.48,448.4 728.27,427.69 721.66,408.13 C 716.26,390.97 710.72,373.84 704.07,357.11 C 701.81,351.35 700.21,345.35 698.37,339.45 C 696.89,330.76 693.06,322.66 692.02,313.88 C 691.1,307.24 686.15,300.67 679,300.45 C 673.73,301.91 670.53,306.95 668.95,311.89 C 665.98,320.95 666.73,330.67 668.12,339.95 C 669.87,351.65 672.32,363.31 676.41,374.43 C 679.37,381.5 683.02,388.28 685.61,395.52 C 686.26,397.26 686.61,399.12 686.33,400.99 C 685.3,410.29 684.3,419.62 684.7,429 C 684.26,438.77 685.84,448.5 688.47,457.89 C 689.67,462.5 691.25,467.31 690.27,472.1 C 687.13,480.74 680.52,487.53 676.92,495.94 C 675.58,500.49 674.96,505.22 673.94,509.85 C 673.18,513.15 672.97,516.88 670.5,519.46 C 666.38,524.05 662.83,529.11 659.16,534.06 C 653.69,542.68 648.85,551.7 643.52,560.42 C 640.19,566.3 635.15,570.95 631.8,576.82 C 624.78,586.15 618.08,595.73 610.93,604.98 C 606.72,611.27 602.06,617.35 599.27,624.46 C 594.49,633.33 589.5,642.26 587.28,652.2 C 583.43,667.31 587.81,683.64 596.77,696.13 C 600.32,700.27 603.2,705.12 607.89,708.13 C 611.8,710.75 617.18,712.53 618.65,717.52 C 620.85,726.87 622.98,736.23 625.14,745.59 C 667.07,745.52 709.01,745.64 750.94,745.53 C 745.26,735.42 739.15,725.57 733.52,715.42 C 729.91,709.61 727.8,702.92 723.49,697.54 C 719.77,693.49 721.97,687.51 723.92,683.12 C 727.39,676.5 731.11,669.87 736.35,664.46 C 745,653.52 752.04,641.43 759.99,630 C 766.1,618.65 773.01,607.74 779.72,596.73 C 792.73,574.14 805.81,551.59 819.22,529.24 C 823.89,522.23 824.75,513.64 825.8,505.51 C 826.89,497.72 826.6,489.84 827,482.01 C 828.19,459.03 827.05,436.01 827.42,413.03 C 827.24,408.31 826.77,403.61 826.48,398.91 C 824.9,386.2 820.58,374.05 815.74,362.26 C 808.01,342.13 799.14,322.44 791.84,302.17 C 790.08,295.28 789.02,288.23 787.36,281.32 C 786.03,276.74 788.42,271.6 785.86,267.3 C 784.53,265.41 781.89,265.33 779.93,266.15 C 772.69,268.62 765.8,274.28 764.4,282.13 C 763.4,291.34 768.34,299.61 771.11,308.07 C 774.91,317.5 778.04,327.22 782.45,336.4 C 786.47,346.57 790.28,356.84 793.79,367.21 C 795.15,373.36 798.09,378.99 799.99,384.97 C 806.01,404.33 807.66,425.01 805.14,445.1 C 804.14,453.57 803.53,462.08 802.35,470.52 C 801.04,472.53 799,470.22 798.36,468.8 C 796.34,462.67 798.72,456.27 798.49,450.02 C 798.26,437.39 798.73,424.71 797.25,412.15 C 796.08,404.45 795.01,396.73 793.64,389.08 C 791.24,382.64 787.76,376.61 785.94,369.95 C 780.22,352.16 772.64,335.05 764.62,318.2 C 757.08,300.47 750.76,281.54 751.79,262.02 C 752.25,258.96 753.81,254.58 750.29,252.72 C 746.49,251.54 742.37,252.5 738.72,253.8 M 568.71,282.95 C 566.85,293.96 564.79,305.04 560.57,315.43 C 557.13,324.96 552.61,334.04 547.78,342.93 C 544.31,348.86 541.19,355.01 538.61,361.38 C 534.04,371.84 536.61,383.8 540.91,393.9 C 543.99,402.4 549.76,409.46 554.08,417.31 C 550.03,417.71 546.01,418.32 542.01,419.03 C 525.59,422.42 508.43,425.49 494.42,435.33 C 489.22,439.17 483.26,443.95 483.15,451.02 C 483.15,464.21 490.36,475.9 497.33,486.59 C 502.58,493.62 507.28,501.3 514.37,506.68 C 522,513.93 530.55,520.19 539.66,525.45 C 549.08,530.41 559.41,533.53 569.95,534.96 C 589.05,537.36 608.66,532.13 624.81,521.86 C 632.18,517.47 638.31,511.39 644.8,505.85 C 648.9,502.58 652.21,498.46 655.57,494.46 C 659.74,489.19 663.89,483.8 666.58,477.59 C 671.15,469.82 674.64,461.17 675.09,452.07 C 675.24,446.75 672.25,441.95 668.18,438.76 C 663.03,433.37 656.14,430.24 649.34,427.48 C 628.4,419.33 605.72,416.99 583.41,416.49 C 586.94,406.56 590.11,396.5 593.39,386.49 C 595.48,379.86 596.24,372.86 596.17,365.93 C 595.56,346.39 588.42,327.77 579.72,310.5 C 575.95,301.37 571.65,292.4 568.71,282.95 M 799.56,759.6 C 780.01,771.74 760.22,783.66 739.27,793.26 C 733.41,795.07 728.08,798.15 722.35,800.27 C 716.4,802.61 710.5,805.08 704.54,807.39 C 689.67,812.65 674.24,816.1 658.83,819.4 C 641.01,822.68 623.09,825.91 604.95,826.6 C 591.01,828 577,828.33 563.03,829.2 C 563.27,831.87 563.52,834.55 563.76,837.23 C 570.91,836.84 578.06,836.23 585.23,836.38 C 585.21,838.33 585.2,840.3 585.19,842.27 C 579.72,842.96 573.8,842.76 568.99,845.9 C 563.09,849.51 557.86,855.73 558.16,863.01 C 558.2,870.97 564.28,877.58 571.16,880.81 C 576.85,883.37 583.37,883.08 589.21,881.19 C 589.42,884.54 589.62,887.9 589.87,891.26 C 594.05,890.84 598.25,890.64 602.46,890.44 C 600.7,872.19 600.67,853.83 598.82,835.59 C 609.23,834.52 619.67,833.76 630.05,832.31 C 630.53,833.93 631.03,835.55 631.55,837.19 C 626.8,837.91 621.93,838.08 617.32,839.48 C 612.38,841.13 609.62,846.17 608.52,850.96 C 608.09,856.31 612.3,860.22 615.27,864.14 C 610.89,871.4 610.24,881.53 615.55,888.48 C 620.75,893.7 627.98,896.3 635.1,897.66 C 635.53,894.6 636.08,891.56 636.74,888.55 C 632.05,887.27 626.62,885.19 625.04,880.09 C 623.34,874.4 628.04,869.32 632.64,866.75 C 636.33,864.44 642.42,866.26 643.23,870.84 C 643.48,873.88 641.54,876.45 640.07,878.94 C 642.25,881.22 644.36,883.58 646.42,885.99 C 652.87,883.49 655.12,876.34 655.71,870.05 C 656.21,865.41 653.81,860.67 649.84,858.26 C 646.45,856.24 643.23,853.26 639.06,853.25 C 633.86,852.47 629.11,856.74 623.97,854.52 C 624.65,852.93 625.53,851.06 627.43,850.73 C 633.46,849.39 639.49,848.04 645.57,846.93 C 644.86,841.48 643.95,836.07 643.21,830.64 C 645.9,830.09 648.61,829.61 651.33,829.12 C 655.86,847.04 661.43,864.69 665.53,882.72 C 669.79,881.9 674.06,881.17 678.3,880.3 C 673.99,862.37 668.43,844.7 665.01,826.58 C 668.68,826.16 672.33,825.53 675.92,824.67 C 678.57,831.42 680.69,838.38 683.19,845.2 C 680.94,846.9 677.69,847.98 676.96,851.02 C 675.92,853.65 677.76,856.64 680.2,857.74 C 684.97,860.04 689.59,863.05 694.89,863.97 C 698.51,863.15 699.09,858.78 699.75,855.74 C 702.42,854.64 705.11,853.58 707.78,852.45 C 704.89,848.49 702.39,844.25 699.41,840.35 C 698.02,840.9 696.64,841.47 695.26,842.02 C 693.3,835.09 690.85,828.31 688.92,821.38 C 693.34,820.12 697.83,819.05 702.11,817.33 C 705.08,818.69 708.34,820.53 709.2,823.96 C 709.83,827.64 707.42,831.72 703.75,832.7 C 701.39,833.23 700.23,835.42 698.81,837.13 C 702.93,843.3 708.17,849.11 715.13,852.06 C 718.54,853.59 722.36,853.51 726.01,854.03 C 733.43,854.93 741.24,851.68 745.27,845.28 C 747.79,849.7 749.91,854.35 752.55,858.71 C 756.24,857.47 759.85,855.97 763.32,854.19 C 760.78,846.23 756.85,838.82 753.61,831.14 C 748.98,821.53 744.74,811.74 740.41,802 C 746.87,799.43 752.93,795.96 759.42,793.46 C 761.88,792.32 764.17,790.84 766.57,789.57 C 767.12,790.4 767.69,791.23 768.27,792.06 C 764.07,794.87 759.74,797.58 756.16,801.18 C 752.96,804.68 752.76,809.85 753.84,814.24 C 755.67,818.85 760.22,821.34 764.11,824 C 763.41,830.76 764.74,838.35 769.5,843.47 C 776.18,849.66 786.23,849.53 794.6,847.69 C 794.06,844.43 793.38,841.2 792.46,838.04 C 789.18,838.63 785.61,839.22 782.55,837.52 C 778.42,835.74 776.43,830.62 777.56,826.41 C 778.92,822.89 780.95,819.04 784.76,817.76 C 787.59,816.92 791.28,817.26 792.97,820.02 C 794.43,822.54 793.74,825.62 793.44,828.37 C 795.87,829.82 798.41,831.08 800.96,832.33 C 802.86,829.85 805.45,827.34 805.2,823.94 C 805.17,818.61 804.45,812.51 800.12,808.83 C 796.45,805.87 791.65,804.73 787.07,804.16 C 782.13,803.52 777.71,806.18 773.98,809.08 C 772.44,810.22 769.12,812.03 768.58,809.03 C 769.33,807.05 771.2,805.95 772.82,804.77 C 777.48,801.51 782.07,798.16 786.73,794.9 C 784,790.49 781.21,786.1 778.88,781.46 C 782.31,779.94 785.43,777.84 788.64,775.91 C 792.94,780.85 795.64,786.86 799.37,792.21 C 798.33,793.97 796.95,795.87 797.68,798.05 C 799.04,801.76 803.18,803.29 806.84,803.45 C 810.38,803.58 813.99,803.93 817.5,803.28 C 820.67,801.78 820.52,797.8 820.42,794.83 C 823.84,793.03 826.59,790.3 829.61,787.95 C 834.31,793.84 839.56,799.27 844.1,805.31 C 847.12,802.61 850.11,799.89 853.06,797.12 C 841.5,783.15 831.31,768.1 820.25,753.76 C 822.39,752.07 824.57,750.42 826.8,748.85 C 825.2,747.22 823.59,745.63 821.98,744.04 C 814.66,749.44 807.15,754.58 799.56,759.6 M 329.62,762.24 C 332.03,763.66 334.36,765.21 336.65,766.82 C 336.88,770.46 336.43,775 332.72,776.81 C 328.62,778.65 323.97,777.15 319.65,777.37 C 315.07,786.61 314.17,798.75 320.78,807.26 C 325.7,812.84 333.71,813.79 340.72,813.44 C 337.7,818.01 335.22,822.93 331.86,827.27 C 335.32,829.67 339.1,831.53 342.71,833.71 C 351.92,818.26 360.81,802.6 370.1,787.2 C 372.42,788.39 374.67,789.7 376.86,791.13 C 372.58,800.55 367.43,809.54 362.72,818.75 C 359.2,825.82 354.72,832.42 351.78,839.78 C 355.52,841.52 359.17,843.45 362.89,845.23 C 366.5,838.15 370.17,831.1 374.1,824.2 C 378.22,814.66 383.57,805.71 388.21,796.42 C 391.41,798.04 394.81,799.33 397.82,801.31 C 400.2,807.9 401.02,816.69 395.73,822.13 C 393.25,818.85 388.32,816.05 384.4,818.53 C 381.3,820.01 379.15,823.55 379.9,827.02 C 380.57,832.22 383.45,837.91 388.91,839.31 C 394.16,840.43 399.01,837.04 402.46,833.44 C 409.01,826.35 410.52,816.21 411.35,806.96 C 413.99,808.04 416.65,809.1 419.34,810.09 C 415.16,822.2 409.59,833.82 406.11,846.17 C 404.27,851.13 402.41,856.08 400.37,860.97 C 404.34,862.36 408.13,864.22 412.03,865.8 C 418.32,848.89 424.31,831.86 430.67,814.97 C 432.26,815.48 433.84,816 435.43,816.55 C 436.58,813.63 437.65,810.68 438.75,807.75 C 422.52,801.39 406.3,794.92 390.66,787.2 C 389.23,781.25 388.04,775.24 386.54,769.31 C 382.81,767.49 379.12,765.59 375.38,763.8 C 376.31,769.76 377.54,775.66 378.53,781.61 C 372.84,777.83 366.79,774.63 360.96,771.09 C 355.45,767.91 350.19,764.31 344.47,761.51 C 341.58,759.48 339.01,756.99 335.89,755.27 C 333.86,757.64 331.79,759.99 329.62,762.24 M 861.8,797.82 C 858.07,800.11 854.46,802.59 850.66,804.77 C 848.31,805.74 849.39,808.53 849.63,810.42 C 851.81,810.42 854.23,810.61 856.04,809.12 C 859.66,806.35 862.6,802.8 866.18,799.97 C 865.97,797.72 863.7,796.56 861.8,797.82 M 470.73,803.64 C 472.52,808.59 475.78,812.78 478.09,817.48 C 476.55,817.14 475.01,816.77 473.5,816.44 C 472.35,819.52 471.62,822.73 471.49,826.03 C 472.34,826.08 474.04,826.19 474.88,826.24 C 474.39,828.81 473.83,831.36 473.3,833.92 C 469.72,833.08 466.13,832.29 462.55,831.5 C 464.58,829.53 466.69,827.54 467.94,824.96 C 470.39,818.84 468.01,811.21 462.4,807.69 C 454.84,802.55 442.68,806.1 439.94,815.05 C 439.37,819.45 438.6,824.82 442.16,828.21 C 436.67,830.17 432.62,834.73 429.57,839.52 C 426.13,844.88 426.37,852.09 429.51,857.51 C 433.17,862.55 438.33,866.87 444.37,868.66 C 444.49,870.62 444.56,872.58 444.64,874.56 C 448.42,875.57 452.19,876.78 456.12,877.04 C 456.18,873.99 456.17,870.95 456.34,867.92 C 455.96,863.56 461.46,862.65 463.41,859.41 C 461.19,857.2 459.27,854.73 457.32,852.31 C 453.43,853.46 449.37,856.32 445.22,854.69 C 443.06,853.78 440.59,852.48 439.93,850.04 C 438.34,843.38 446.23,836.9 452.46,839.53 C 458.64,841.8 465.05,843.39 471.38,845.19 C 469.05,856.92 466.39,868.59 464.13,880.34 C 468.25,881.09 472.36,881.91 476.46,882.77 C 480.24,864.86 484.24,847.01 487.89,829.08 C 491.88,830.08 495.87,831.14 499.97,831.61 C 499.26,837.97 498.44,844.32 497.63,850.67 C 493.26,850.01 489.06,853.56 489.5,858.06 C 490.36,863.06 493.96,867 497.44,870.49 C 499.13,872.05 500.68,874.15 503.13,874.5 C 506.18,872.99 508.08,869.81 508.74,866.55 C 512.97,867.08 517.28,867.19 521.42,868.32 C 521.13,875.01 520.71,881.7 520.53,888.39 C 524.56,888.94 528.58,889.53 532.63,889.99 C 534.41,872.45 536.03,854.88 537,837.28 C 538.57,837.21 540.14,837.19 541.72,837.08 C 542.46,833.93 542.41,830.67 542.67,827.46 C 525.66,826 508.12,826.03 491.86,820.35 C 488.99,815.97 486.53,811.32 483.75,806.88 C 479.38,805.9 475.01,804.94 470.73,803.64 M 528.54,808.72 C 525.05,810.6 525.84,816.14 529.28,817.62 C 532.59,819.67 537.27,817.02 536.95,813.06 C 537.65,808.54 531.84,806.15 528.54,808.72 z" id="path26" style="opacity: 1; fill: rgb(2, 66, 130);"/>
    <path d="M 2441.67,147.86 C 2469.3,132.77 2500.87,126.69 2532.03,124.95 C 2562.55,123.51 2593.42,124.39 2623.39,130.86 C 2641.29,134.95 2658.9,140.92 2674.8,150.22 C 2691.48,158.13 2704.73,171.37 2717.54,184.35 C 2725.63,191.93 2731.35,201.48 2737.46,210.63 C 2747.74,226.05 2755.11,243.23 2761.2,260.68 C 2763.94,272.19 2767.88,283.39 2770.11,295.04 C 2777.7,329.72 2779.83,365.29 2780.28,400.7 C 2748.53,400.89 2716.78,400.75 2685.04,400.82 C 2670.21,401.01 2655.41,400.91 2640.59,400.81 C 2640.69,372.63 2639.15,344.32 2633.68,316.63 C 2632.34,306.88 2629.34,297.43 2625.77,288.29 C 2619.93,274.03 2609.17,261.38 2594.88,255.15 C 2582.63,250.11 2569.04,249.14 2555.98,250.39 C 2534.61,251.92 2513.05,260.36 2498.39,276.35 C 2487.55,286.25 2480.36,299.34 2474.52,312.64 C 2472.72,316.07 2471.81,319.83 2470.82,323.55 C 2460.91,353.29 2458.03,384.85 2457.54,416.03 C 2457.45,481.34 2457.52,546.66 2457.5,611.98 C 2457.58,642.98 2457.32,673.98 2457.65,704.98 C 2458.63,734.91 2461.38,765.23 2471.1,793.75 C 2474.05,804.16 2479.19,813.87 2485.27,822.79 C 2491.86,831.12 2499.34,838.79 2507.82,845.22 C 2517.78,851.96 2529.01,857.12 2540.94,859.11 C 2559.05,862.75 2578.64,863.52 2595.89,855.97 C 2612.22,847.11 2623.7,831.18 2630.34,814.13 C 2631.89,810.39 2633,806.5 2633.78,802.53 C 2641.39,776.04 2644.04,748.43 2645.56,721.01 C 2646.42,706.43 2646.64,691.82 2646.57,677.22 C 2691.91,677.11 2737.25,677.19 2782.6,677.07 C 2782.68,726.2 2778.08,775.67 2764.93,823.14 C 2762.61,829.63 2761.66,836.5 2759.14,842.93 C 2752.12,863.11 2743.21,882.7 2731.88,900.84 C 2722.58,918.37 2709.01,933.11 2695.38,947.33 C 2689.86,952.69 2683.27,956.68 2677,961.05 C 2649.41,979.4 2615.74,986.56 2582.99,987.01 C 2569.67,987.58 2556.34,987.29 2543.04,986.81 C 2529.57,986.76 2516.16,985.32 2502.89,983.12 C 2477.34,978.95 2451.97,971.17 2430,957.17 C 2422.14,952.97 2414.93,947.63 2408.37,941.63 C 2396.97,930.62 2385.52,919.47 2376.48,906.39 C 2374.41,902.85 2372.19,899.42 2369.99,895.98 C 2359.72,880.27 2352.23,862.9 2345.86,845.3 C 2343.19,838.69 2342.29,831.58 2339.88,824.9 C 2331.13,793.73 2326.04,761.63 2323.16,729.42 C 2319.3,689.41 2319.52,649.17 2319.6,609.01 C 2319.67,558.66 2319.47,508.3 2319.71,457.95 C 2320.49,404.78 2324.2,351.26 2336.82,299.45 C 2340.62,284.81 2344.22,270.08 2349.89,256.02 C 2355.3,242.91 2361.26,229.93 2368.88,217.94 C 2372.97,212.59 2375.92,206.47 2380.33,201.35 C 2385.51,195.22 2390.42,188.81 2396.39,183.4 C 2400.55,179.24 2404.79,175.15 2408.89,170.92 C 2414.82,165.41 2421.3,160.51 2427.96,155.92 C 2432.27,152.81 2437.28,150.86 2441.67,147.86 z" id="path28" style="opacity: 1; fill: rgb(2, 66, 130);"/>
    <path d="M 1391.78,142.53 C 1437.18,142.19 1482.6,142.48 1528.01,142.38 C 1527.8,363.58 1527.98,584.79 1527.92,806 C 1527.96,820.21 1527.83,834.42 1527.99,848.63 C 1623.08,848.68 1718.17,848.65 1813.26,848.64 C 1813.31,888.98 1813.21,929.32 1813.31,969.66 C 1672.83,969.75 1532.34,969.68 1391.86,969.69 C 1391.89,746.14 1391.86,522.58 1391.87,299.02 C 1391.81,246.86 1392,194.69 1391.78,142.53 z" id="path30" style="opacity: 1; fill: rgb(2, 66, 130);"/>
    <path d="M 1998.16,142.38 C 2043.68,142.39 2089.19,142.38 2134.71,142.38 C 2134.78,418.16 2134.72,693.94 2134.74,969.72 C 2089.21,969.68 2043.68,969.69 1998.16,969.72 C 1998.15,693.94 1998.15,418.16 1998.16,142.38 z" id="path32" style="opacity: 1; fill: rgb(2, 66, 130);"/>
    <path d="M 578.46,444.91 C 577.85,436.92 580.11,429.09 581.87,421.38 C 601.01,421.39 620.2,424.19 638.51,429.76 C 646.99,432.45 655.64,435.69 662.34,441.75 C 664.12,443.41 665.02,446.34 663.45,448.45 C 660.37,452.74 655.16,454.69 650.42,456.55 C 632.65,462.62 613.06,465.18 594.71,460.21 C 587.27,458.25 579.67,453.02 578.46,444.91 z" id="path34" style="opacity: 1; fill: rgb(2, 66, 130);"/>
    <path d="M 523.81,427.89 C 534.8,425.21 545.94,423.1 557.23,422.16 C 561.12,426.63 564.36,431.69 566.84,437.07 C 569.31,442.17 569.25,448.11 568.5,453.6 C 566,459.06 559.56,460.96 554.11,461.96 C 543.13,463.58 531.9,462.68 521.08,460.43 C 512.54,458.65 503.78,456.53 496.51,451.48 C 494.51,449.94 492.23,447.7 492.82,444.92 C 493.42,441.64 496.54,439.92 498.96,438.06 C 506.33,432.77 515.15,430.19 523.81,427.89 z" id="path36" style="opacity: 1; fill: rgb(2, 66, 130);"/>
    <path d="M 800.08,767.85 C 803.15,766.04 806.13,764.1 809.1,762.12 C 813.33,766.8 817.22,771.8 821.14,776.75 C 818.07,779.13 815.13,781.67 812.05,784.05 C 807.83,778.82 804.13,773.2 800.08,767.85 z" id="path38" style="opacity: 1; fill: rgb(2, 66, 130);"/>
    <path d="M 347.66,774.22 C 351.18,776.3 354.79,778.26 358.04,780.77 C 353.98,787.15 350.3,793.8 345.78,799.88 C 340.69,803.85 332.01,801.03 330.03,794.89 C 329.18,793.14 330.29,791.36 330.71,789.68 C 335.09,789.46 340.49,789.21 343.19,785.18 C 345.68,782.02 347.18,778.21 347.66,774.22 z" id="path40" style="opacity: 1; fill: rgb(2, 66, 130);"/>
    <path d="M 720.33,811.42 C 722.69,809.92 725.42,809.21 728.07,808.41 C 730.24,814.82 733.4,820.79 736.27,826.9 C 737.27,831.44 735.48,836.9 731.24,839.21 C 729.31,840.23 727.3,841.9 724.99,841.13 C 721.96,840.64 719.89,838.24 718.15,835.94 C 721.87,832.36 724.83,827.21 723.53,821.89 C 723.19,818.19 720.61,814.98 720.33,811.42 z" id="path42" style="opacity: 1; fill: rgb(2, 66, 130);"/>
    <path d="M 451.42,820.87 C 450.14,818.01 454.65,814.93 456.68,817.44 C 458.54,819.15 457.21,821.71 456.15,823.45 C 454.37,823.13 452.03,822.89 451.42,820.87 z" id="path44" style="opacity: 1; fill: rgb(2, 66, 130);"/>
    <path d="M 513.03,834.28 C 516.62,834.59 520.2,834.97 523.76,835.54 C 523.52,841.47 523.28,847.4 523.08,853.34 C 518.72,853.49 514.37,853.13 510.06,852.5 C 511,846.42 512.3,840.39 513.03,834.28 z" id="path46" style="opacity: 1; fill: rgb(2, 66, 130);"/>
    <path d="M 571.46,859.37 C 575.08,854.86 581.35,854.26 586.64,855.53 C 587.03,860.07 587.33,864.61 587.51,869.17 C 583.54,870.77 578.76,871.53 574.97,869.07 C 571.55,867.41 569.07,862.83 571.46,859.37 z" id="path48" style="opacity: 1; fill: rgb(2, 66, 130);"/>
    <path d="M 2423.57,1144.85 C 2437.72,1143.08 2451.88,1145.53 2465.75,1148.16 C 2485.38,1153.63 2504.2,1161.8 2521.69,1172.26 C 2529.54,1177.16 2538.11,1180.85 2545.61,1186.33 C 2550.23,1189.73 2554.96,1192.98 2559.73,1196.19 C 2562,1198.16 2565.17,1197.21 2567.94,1197.42 C 2699.76,1197.4 2831.57,1197.4 2963.39,1197.42 C 2963.33,1202.83 2963.34,1208.25 2963.38,1213.68 C 2954.87,1213.67 2946.37,1213.64 2937.88,1213.69 C 2937.89,1251.25 2937.83,1288.82 2937.91,1326.39 C 2929.82,1326.41 2921.74,1326.39 2913.68,1326.39 C 2913.71,1306.44 2913.71,1286.49 2913.68,1266.55 C 2895.25,1266.59 2876.82,1266.59 2858.39,1266.55 C 2858.4,1272.15 2858.25,1277.76 2858.49,1283.37 C 2855.47,1289.07 2848.03,1290.04 2842.39,1288.36 C 2835.05,1285.95 2829.25,1280.6 2823.45,1275.76 C 2818.45,1271.79 2812.63,1268 2810.14,1261.88 C 2808.76,1259.25 2810.17,1256.48 2810.77,1253.87 C 2817.3,1248.5 2825.92,1248.93 2833.87,1249.17 C 2833.93,1237.33 2833.9,1225.49 2833.89,1213.66 C 2808.43,1213.67 2782.97,1213.68 2757.51,1213.65 C 2757.49,1251.24 2757.5,1288.82 2757.51,1326.41 C 2749.12,1326.39 2740.75,1326.38 2732.37,1326.42 C 2732.36,1288.83 2732.38,1251.25 2732.37,1213.67 C 2716.77,1213.66 2701.18,1213.68 2685.59,1213.66 C 2685.59,1234.8 2685.58,1255.95 2685.59,1277.1 C 2685.66,1280.8 2682.74,1284.46 2679.03,1284.96 C 2669.55,1287.5 2660.8,1281.54 2653.13,1276.8 C 2646.82,1273.39 2641.51,1268.43 2636.86,1263.03 C 2632.96,1259.15 2631.4,1253.06 2633.83,1247.99 C 2636.48,1245.18 2640.47,1245.66 2643.98,1245.43 C 2649.83,1245.22 2655.71,1245.23 2661.59,1245.24 C 2661.8,1234.7 2661.71,1224.16 2661.64,1213.62 C 2635.59,1213.71 2609.56,1213.66 2583.52,1213.65 C 2583.49,1251.24 2583.51,1288.82 2583.51,1326.41 C 2575.24,1326.38 2566.98,1326.41 2558.73,1326.39 C 2558.77,1302.97 2558.73,1279.55 2558.74,1256.13 C 2539.87,1256.17 2520.99,1256.13 2502.12,1256.15 C 2501.87,1263.08 2502.65,1270.09 2501.52,1276.97 C 2500.85,1280.96 2496.62,1282.95 2492.97,1283.23 C 2489.25,1283.84 2485.82,1281.89 2482.67,1280.23 C 2474.33,1274.8 2466.02,1269.07 2459.41,1261.54 C 2457.08,1258.84 2454.51,1256.22 2453.15,1252.89 C 2451.8,1250.16 2453.01,1247 2454.72,1244.74 C 2458.4,1240.96 2463.88,1239.79 2469.01,1239.85 C 2498.92,1239.83 2528.83,1239.84 2558.74,1239.85 C 2558.73,1231.11 2558.77,1222.38 2558.72,1213.65 C 2508.29,1213.66 2457.86,1213.65 2407.44,1213.81 C 2407.24,1251.34 2407.39,1288.87 2407.36,1326.4 C 2399.06,1326.4 2390.77,1326.38 2382.49,1326.41 C 2382.44,1288.88 2382.59,1251.34 2382.41,1213.81 C 2372.45,1213.92 2362.49,1213.77 2352.53,1213.89 C 2352.48,1208.46 2352.51,1203.05 2352.51,1197.63 C 2362.2,1197.62 2371.91,1197.65 2381.61,1197.62 C 2379.82,1192.22 2377.21,1186.86 2377.79,1181.01 C 2377.58,1167.31 2388.8,1156.82 2400.24,1151.18 C 2407.39,1147.17 2415.59,1146.09 2423.57,1144.85 M 2418.08,1163.28 C 2411.16,1165.12 2405.29,1170.3 2402.78,1177.02 C 2400.24,1183.82 2401.48,1191.73 2405.63,1197.65 C 2445.83,1197.35 2486.04,1197.42 2526.25,1197.38 C 2517.66,1191.2 2508.71,1185.46 2499.23,1180.74 C 2486.32,1176.07 2474.46,1168.7 2461.07,1165.28 C 2447.21,1161.45 2432.08,1158.38 2418.08,1163.28 M 2858.47,1249.21 C 2876.87,1249.09 2895.27,1249.21 2913.68,1249.16 C 2913.71,1237.32 2913.7,1225.49 2913.68,1213.66 C 2895.25,1213.67 2876.82,1213.69 2858.4,1213.64 C 2858.41,1225.5 2858.27,1237.36 2858.47,1249.21 z" id="path50" style="opacity: 1; fill: rgb(2, 66, 130);"/>
    <path d="M 510.27,1158.2 C 517.05,1151.46 526.46,1147.44 536.01,1147.08 C 546.17,1146.19 556.78,1146.69 566.21,1150.96 C 579.75,1157.43 593.11,1165.49 602.44,1177.5 C 609.06,1183.41 614.17,1190.72 619.93,1197.42 C 689.53,1197.39 759.12,1197.43 828.71,1197.4 C 828.66,1202.88 828.7,1208.37 828.68,1213.87 C 820.54,1213.81 812.41,1213.87 804.28,1213.84 C 804.25,1251.36 804.25,1288.87 804.28,1326.39 C 796.02,1326.41 787.77,1326.37 779.52,1326.41 C 779.51,1314.73 779.61,1303.05 779.46,1291.38 C 758.96,1302.13 734.32,1302.93 712.39,1296.37 C 703.18,1293.7 694.72,1288.84 687.47,1282.63 C 682.76,1278.25 678.04,1273.49 675.81,1267.33 C 673.34,1261.53 673.02,1255.15 673.21,1248.95 C 678.12,1249.98 682.89,1251.96 687.99,1251.78 C 695.84,1251.89 704.22,1250.5 710.53,1245.5 C 715.64,1241.74 716.34,1234.06 713.21,1228.82 C 710.2,1222.67 704.95,1218.24 699.88,1213.86 C 675.08,1213.94 650.29,1213.73 625.49,1213.65 C 625.46,1251.24 625.47,1288.83 625.49,1326.41 C 617.27,1326.37 609.04,1326.42 600.82,1326.38 C 600.86,1288.81 600.84,1251.24 600.83,1213.67 C 582.4,1213.66 563.97,1213.68 545.55,1213.66 C 545.51,1251.24 545.55,1288.83 545.52,1326.42 C 537.28,1326.36 529.03,1326.42 520.78,1326.39 C 520.82,1300.07 520.77,1273.75 520.8,1247.44 C 504.2,1247.44 487.59,1247.44 470.98,1247.44 C 462.49,1247.5 453.44,1246.66 445.64,1250.67 C 440.74,1253.51 439.79,1259.87 440.82,1264.99 C 442.92,1277.87 452.07,1288.06 460.99,1296.97 C 466.38,1302.02 471.87,1307.51 479.08,1309.82 C 483.32,1310.97 487.68,1311.58 491.94,1312.67 C 485.49,1317.1 479.3,1321.91 472.82,1326.29 C 468.63,1326.63 465.37,1323.3 462.01,1321.28 C 454.83,1316.85 448.67,1311.02 441.7,1306.3 C 435.5,1299.79 429.26,1293.18 424.53,1285.48 C 420.21,1278.38 416.62,1270.51 416.33,1262.07 C 415.79,1254.89 417.62,1247.09 422.92,1241.94 C 429.58,1234.24 440.1,1231.05 450,1230.85 C 473.6,1230.83 497.2,1230.83 520.8,1230.85 C 520.81,1225.12 520.77,1219.39 520.81,1213.67 C 472.42,1213.66 424.03,1213.67 375.65,1213.66 C 375.58,1223.79 375.8,1233.93 375.54,1244.06 C 375.64,1251.76 369.73,1257.9 363.41,1261.44 C 354.04,1266.5 343.26,1268.86 332.63,1268.46 C 335.55,1271.5 338.74,1274.26 341.85,1277.1 C 347.03,1283.27 353.26,1288.42 359.37,1293.64 C 368.02,1300.35 376.52,1307.26 385.75,1313.19 C 386.29,1313.88 388.34,1314.18 387.61,1315.38 C 383.65,1318.17 379.34,1320.44 375.44,1323.34 C 373.74,1324.52 372.11,1325.91 370.14,1326.63 C 364,1324.92 358.94,1320.84 353.91,1317.12 C 338.34,1304.77 323.56,1291.34 310.27,1276.56 C 298.4,1265.26 288.89,1251.79 277.92,1239.67 C 284.48,1235.73 291.5,1232.66 298.2,1229 C 303.78,1235.35 308.98,1242.06 314.58,1248.39 C 321.56,1253.4 330.97,1252.69 339.09,1251.73 C 345.42,1251.16 351.03,1245.57 350.92,1239.09 C 350.91,1230.61 350.94,1222.14 350.91,1213.67 C 313.64,1213.67 276.38,1213.66 239.11,1213.67 C 239.08,1251.24 239.08,1288.81 239.1,1326.38 C 230.68,1326.42 222.27,1326.39 213.85,1326.39 C 213.87,1288.82 213.85,1251.25 213.86,1213.67 C 194.51,1213.67 175.16,1213.66 155.81,1213.68 C 155.83,1251.25 155.79,1288.82 155.83,1326.39 C 147.62,1326.4 139.42,1326.4 131.21,1326.39 C 131.24,1306.64 131.24,1286.89 131.22,1267.14 C 115.72,1267.08 100.22,1267.12 84.72,1267.13 C 84.65,1274.3 84.84,1281.49 84.53,1288.67 C 80.29,1292.22 74.22,1293.32 69.13,1290.96 C 62.29,1287.88 55.57,1284.26 49.94,1279.25 C 43.25,1273.6 34.78,1269.27 30.75,1261.12 C 28.98,1258.12 31.75,1254.8 34.22,1253.22 C 41.76,1248.14 51.29,1250.83 59.77,1250.17 C 59.76,1240.13 59.93,1230.1 59.71,1220.08 C 59,1216.19 54.46,1214.65 51.07,1213.87 C 46.66,1213.41 42.1,1214.23 38.05,1216.02 C 34.79,1217.42 32.6,1221.48 34.06,1224.89 C 35.62,1229.32 39.23,1232.49 42.01,1236.15 C 33.36,1235.84 24.7,1235.79 16.05,1235.69 C 10.55,1229.44 9.14,1219.55 13.21,1212.21 C 16.62,1207.56 21.22,1203.68 26.65,1201.61 C 39.14,1196.48 53.42,1196.18 66.37,1199.75 C 75.74,1202.46 85.22,1210.49 84.72,1221.03 C 84.75,1230.74 84.71,1240.44 84.73,1250.15 C 100.23,1250.16 115.72,1250.17 131.22,1250.15 C 131.25,1237.99 131.22,1225.83 131.23,1213.68 C 120.13,1213.65 109.02,1213.67 97.92,1213.66 C 97.87,1208.24 97.85,1202.81 97.93,1197.4 C 233.84,1197.44 369.76,1197.36 505.68,1197.44 C 501.57,1190.94 498.62,1183.1 500.71,1175.37 C 502.86,1169.16 505.3,1162.75 510.27,1158.2 M 525.71,1182.6 C 527.61,1188.14 531.07,1193.05 534.92,1197.42 C 555.27,1197.36 575.62,1197.47 595.97,1197.36 C 587.34,1187.08 576.25,1179.46 565.99,1171 C 558.7,1165.94 550.13,1161.29 540.94,1162.46 C 531.41,1162.97 522.7,1173.04 525.71,1182.6 M 730.19,1213.83 C 735.1,1220.69 740.13,1228.15 740.34,1236.9 C 740.1,1243.71 736.51,1250.02 731.55,1254.54 C 723.89,1262.46 712.6,1264.77 702.18,1266.68 C 710.54,1280.88 728.26,1286.63 743.99,1284.88 C 753.13,1284.46 761.8,1281.12 769.6,1276.49 C 773.65,1274.72 776.42,1271.22 779.52,1268.24 C 779.49,1250.09 779.65,1231.94 779.44,1213.8 C 763.02,1213.9 746.61,1213.84 730.19,1213.83 z" id="path52" style="opacity: 1; fill: rgb(2, 66, 130);"/>
    <path d="M 1136.23,1151.18 C 1145.99,1146.22 1157.37,1146.31 1168.03,1147.2 C 1174.69,1147.52 1180.88,1150.3 1186.76,1153.25 C 1196.05,1157.8 1204.9,1163.47 1212.36,1170.7 C 1215.23,1174.1 1218.17,1177.45 1221.51,1180.43 C 1226.73,1185.74 1231.14,1191.77 1236.01,1197.4 C 1358.19,1197.41 1480.38,1197.4 1602.57,1197.41 C 1602.54,1202.83 1602.55,1208.25 1602.55,1213.68 C 1593.26,1213.66 1583.97,1213.65 1574.69,1213.68 C 1574.71,1251.26 1574.69,1288.83 1574.7,1326.41 C 1566.49,1326.37 1558.28,1326.42 1550.08,1326.39 C 1550.16,1302.99 1550.08,1279.59 1550.12,1256.2 C 1531.2,1256.07 1512.28,1256.21 1493.37,1256.12 C 1492.88,1263.78 1494.41,1271.72 1492.17,1279.18 C 1490.07,1282.42 1485.64,1283.41 1481.97,1283.32 C 1477.16,1282.61 1472.99,1279.81 1469.35,1276.74 C 1462.09,1272.22 1455.19,1266.98 1449.66,1260.4 C 1447.32,1257.58 1444.69,1254.72 1443.85,1251.06 C 1443.7,1247.65 1445.59,1244.23 1448.67,1242.7 C 1452.27,1240.2 1456.76,1239.88 1461,1239.84 C 1490.7,1239.81 1520.41,1239.91 1550.11,1239.79 C 1550.1,1231.08 1550.1,1222.38 1550.12,1213.68 C 1500.27,1213.65 1450.43,1213.68 1400.58,1213.66 C 1400.57,1251.25 1400.59,1288.83 1400.57,1326.42 C 1392.21,1326.38 1383.85,1326.38 1375.49,1326.41 C 1375.49,1314.82 1375.5,1303.23 1375.49,1291.64 C 1359.57,1301.1 1339.81,1302.25 1322.13,1297.72 C 1313.66,1295.66 1306.06,1291.1 1299.25,1285.78 C 1293.84,1281.31 1288.93,1275.29 1288.24,1268.06 C 1287.09,1259.84 1289.8,1251.33 1295.07,1244.99 C 1300.43,1239.24 1306.76,1234.35 1313.85,1230.9 C 1323.88,1226.35 1335.15,1226.02 1345.96,1226.81 C 1351.77,1227.43 1357.51,1228.66 1363.37,1228.87 C 1365.52,1235.8 1367.65,1242.73 1369.76,1249.68 C 1364.33,1247.75 1359.03,1245.34 1353.34,1244.26 C 1348.66,1243.12 1343.81,1243.2 1339.03,1243.1 C 1333.64,1243.09 1327.91,1243.11 1323.15,1245.99 C 1317.99,1249.24 1313.81,1254.74 1313.67,1261.03 C 1313.41,1266.83 1315.19,1273.35 1320.23,1276.78 C 1326.5,1282.15 1335.04,1283.29 1343.01,1283.4 C 1352.94,1283.27 1362.24,1279.33 1371.02,1275.06 C 1372.89,1273.93 1375.68,1272.61 1375.49,1270.03 C 1375.51,1251.23 1375.5,1232.44 1375.49,1213.65 C 1330.82,1213.68 1286.15,1213.68 1241.48,1213.65 C 1241.46,1251.23 1241.44,1288.82 1241.49,1326.41 C 1233.24,1326.38 1225,1326.41 1216.76,1326.39 C 1216.75,1288.82 1216.74,1251.25 1216.76,1213.68 C 1198.37,1213.65 1179.99,1213.68 1161.61,1213.66 C 1161.6,1251.25 1161.62,1288.83 1161.59,1326.42 C 1153.34,1326.37 1145.09,1326.42 1136.85,1326.38 C 1136.91,1301.83 1136.88,1277.29 1136.87,1252.74 C 1122.89,1252.74 1108.92,1252.7 1094.95,1252.76 C 1099.94,1261.24 1105.33,1269.99 1106.39,1280 C 1106.12,1288.04 1102.43,1296.07 1096.14,1301.18 C 1090,1306.41 1082.05,1309 1074.18,1310.11 C 1054.6,1312.64 1033.5,1307.69 1018.61,1294.33 C 1004.99,1282.83 994.1,1268.17 987.11,1251.77 C 985.21,1248.1 984.08,1244.13 983.22,1240.12 C 990.33,1236.2 997.54,1232.46 1004.74,1228.7 C 1004.83,1232.44 1004.17,1236.46 1006.09,1239.9 C 1010.27,1248.04 1013.61,1256.64 1018.9,1264.16 C 1022.6,1271.15 1028.54,1276.47 1034.19,1281.85 C 1044.6,1291.35 1059.73,1298.92 1073.88,1293.62 C 1078.54,1291.68 1082.17,1287.2 1082.59,1282.1 C 1083.34,1275.32 1080.1,1268.95 1076.51,1263.46 C 1073.07,1258.04 1068.35,1253.64 1063.93,1249.06 C 1059.84,1244.47 1054.1,1241.88 1049.94,1237.37 C 1078.92,1237.32 1107.9,1237.35 1136.88,1237.35 C 1136.86,1229.46 1136.89,1221.56 1136.88,1213.67 C 1079.04,1213.67 1021.2,1213.64 963.36,1213.69 C 963.38,1208.26 963.39,1202.83 963.35,1197.41 C 1016.19,1197.4 1069.02,1197.42 1121.86,1197.4 C 1115.72,1190.4 1114.81,1180.02 1117.75,1171.45 C 1121.14,1162.73 1127.76,1155.24 1136.23,1151.18 M 1146.84,1166.81 C 1143.4,1170.29 1140.37,1175.08 1141.28,1180.19 C 1142.29,1186.72 1146.93,1191.73 1150.12,1197.27 C 1170.72,1197.56 1191.34,1197.37 1211.96,1197.36 C 1205.21,1189.63 1197.45,1182.79 1189.13,1176.82 C 1181.46,1170.43 1173.13,1163.8 1162.9,1162.46 C 1157.33,1162.02 1150.93,1162.54 1146.84,1166.81 z" id="path54" style="opacity: 1; fill: rgb(2, 66, 130);"/>
    <path d="M 1825.17,1166.21 C 1830.79,1154.3 1844.16,1147.45 1856.98,1147.06 C 1867.33,1146.14 1878.1,1146.9 1887.63,1151.36 C 1897.6,1156.23 1907.31,1161.94 1915.5,1169.5 C 1924.4,1178.21 1932.58,1187.61 1940.3,1197.38 C 2035.33,1197.45 2130.36,1197.37 2225.39,1197.42 C 2225.35,1202.83 2225.35,1208.24 2225.39,1213.66 C 2214.4,1213.66 2203.42,1213.68 2192.44,1213.65 C 2192.39,1251.24 2192.41,1288.82 2192.43,1326.41 C 2184.17,1326.38 2175.91,1326.4 2167.66,1326.4 C 2167.68,1288.81 2167.7,1251.23 2167.65,1213.65 C 2150.97,1213.69 2134.28,1213.66 2117.6,1213.66 C 2117.58,1251.25 2117.6,1288.84 2117.6,1326.43 C 2109.52,1326.36 2101.44,1326.4 2093.37,1326.41 C 2093.39,1306.46 2093.37,1286.51 2093.38,1266.57 C 2074.88,1266.59 2056.37,1266.55 2037.87,1266.59 C 2038.1,1272 2038,1277.42 2038.17,1282.85 C 2035.59,1289.22 2027.46,1290.15 2021.69,1288.22 C 2014.52,1285.27 2008.81,1279.87 2002.62,1275.39 C 1997.72,1271.46 1992.04,1267.63 1989.72,1261.55 C 1988.56,1258.95 1989.87,1256.3 1990.58,1253.81 C 1993.39,1252.17 1996.12,1250.13 1999.44,1249.62 C 2004.31,1248.78 2009.29,1249.28 2014.22,1249.17 C 2014.25,1237.34 2014.21,1225.51 2014.24,1213.69 C 1991.45,1213.65 1968.66,1213.66 1945.88,1213.68 C 1945.89,1251.25 1945.84,1288.82 1945.9,1326.39 C 1937.84,1326.4 1929.78,1326.4 1921.73,1326.39 C 1921.69,1288.79 1921.85,1251.19 1921.66,1213.6 C 1903.31,1213.76 1884.97,1213.61 1866.63,1213.67 C 1866.64,1251.25 1866.65,1288.83 1866.63,1326.41 C 1858.38,1326.36 1850.13,1326.44 1841.88,1326.37 C 1842.47,1315.35 1841.59,1304.32 1842.12,1293.31 C 1835.19,1297.64 1827.04,1299.61 1819.07,1301.02 C 1809.76,1301.45 1800.23,1302.09 1791.12,1299.63 C 1781.46,1297.29 1772.45,1292.52 1764.79,1286.24 C 1759.13,1280.7 1754.83,1273.15 1755.09,1265.03 C 1754.53,1257.22 1758.17,1249.9 1763.05,1244.05 C 1770.39,1237.2 1779.32,1231.97 1789.08,1229.45 C 1802.29,1225.5 1816.31,1227.71 1829.59,1230.16 C 1831.26,1237.67 1833.15,1245.15 1834.75,1252.69 C 1830.66,1249.73 1827.64,1244.41 1822.13,1244.19 C 1812.79,1242.6 1803.14,1243.72 1794.21,1246.8 C 1810.04,1254.43 1825.86,1262.05 1841.6,1269.84 C 1842.56,1263.61 1841.92,1257.28 1841.94,1251.02 C 1842.09,1238.56 1842.12,1226.1 1841.92,1213.65 C 1805.66,1213.7 1769.39,1213.64 1733.13,1213.68 C 1733.14,1208.25 1733.16,1202.82 1733.11,1197.4 C 1764.3,1197.41 1795.5,1197.41 1826.69,1197.4 C 1822.35,1191.98 1819.79,1185.04 1820.58,1178.05 C 1821.24,1173.82 1823.15,1169.93 1825.17,1166.21 M 1851.52,1166.51 C 1847.08,1170.61 1843.93,1177.1 1846.31,1183.12 C 1848.31,1188.29 1851.46,1193.06 1855.18,1197.17 C 1875.54,1197.72 1895.99,1197.25 1916.39,1197.4 C 1908.06,1187.36 1897.31,1179.89 1887.37,1171.62 C 1881.92,1167.79 1876.04,1164.29 1869.49,1162.8 C 1863.36,1161.64 1856.43,1162.36 1851.52,1166.51 M 2038.08,1213.65 C 2037.83,1225.49 2037.77,1237.35 2038.12,1249.19 C 2056.54,1249.12 2074.95,1249.18 2093.37,1249.17 C 2093.39,1237.33 2093.37,1225.5 2093.37,1213.67 C 2074.94,1213.66 2056.51,1213.69 2038.08,1213.65 M 1781.06,1257.06 C 1778.46,1262.37 1777.56,1269.42 1781.85,1274.13 C 1787.83,1279.35 1794.83,1284.09 1802.97,1284.82 C 1811.62,1286.45 1820.72,1284.91 1828.2,1280.26 C 1822.12,1276.49 1815.2,1274.46 1808.95,1271.03 C 1799.55,1266.58 1790.5,1261.44 1781.06,1257.06 z" id="path56" style="opacity: 1; fill: rgb(2, 66, 130);"/>
    <path d="M 528.92,1374.94 C 537.93,1370 548.68,1371.02 558.55,1371.79 C 569.37,1373.77 578.83,1381.41 584.13,1390.93 C 578.37,1393.26 572.52,1395.38 566.92,1398.07 C 563.81,1393.88 560.27,1389.75 555.41,1387.58 C 549.81,1385.11 542.81,1385.15 537.65,1388.65 C 534.01,1391.93 531.57,1397.07 532.85,1402.02 C 534.24,1405.09 536.56,1408 539.84,1409.17 C 550.46,1413.54 562.47,1414.38 572.28,1420.75 C 585.15,1428.13 590.65,1445.55 584.89,1459.13 C 581.93,1467.63 574.59,1473.8 566.55,1477.35 C 557.62,1480.73 547.7,1481.16 538.37,1479.37 C 525.9,1476.47 514.73,1467.8 509.43,1456.07 C 515.69,1453.69 521.95,1451.32 528.15,1448.77 C 532.35,1454.07 536.34,1460.6 543.33,1462.4 C 550.99,1464.59 560.79,1463.61 565.78,1456.7 C 569.89,1451.6 568.56,1443.53 563.38,1439.69 C 557.99,1435.57 550.96,1435.3 544.77,1433.1 C 534.82,1430.02 524.11,1425.98 517.87,1417.14 C 513,1410.49 512.13,1401.69 513.91,1393.82 C 515.83,1385.72 521.59,1378.78 528.92,1374.94 z" id="path58" style="opacity: 1; fill: rgb(2, 66, 130);"/>
    <path d="M 1041.71,1374.72 C 1050.3,1370.51 1060.24,1370.77 1069.52,1371.79 C 1083.61,1374.37 1095.55,1385.88 1098.66,1399.87 C 1092.35,1401.54 1086.12,1403.52 1079.72,1404.82 C 1077.9,1399.16 1074.93,1393.4 1069.47,1390.5 C 1062.83,1386.76 1053.84,1386.82 1047.88,1391.87 C 1041.41,1397.31 1038.09,1405.68 1036.77,1413.86 C 1034.92,1426.03 1035.29,1439.06 1040.77,1450.31 C 1043.3,1455.65 1048.22,1459.7 1053.9,1461.3 C 1061.31,1462.69 1068.98,1459.45 1074.05,1454.06 C 1077.27,1450.86 1078.99,1446.58 1080.7,1442.47 C 1086.9,1444.59 1093.22,1446.33 1099.56,1448 C 1097.93,1454.71 1095.4,1461.47 1090.7,1466.66 C 1087.15,1469.89 1083.9,1473.62 1079.5,1475.73 C 1060.5,1485.73 1034.64,1479.09 1022.43,1461.57 C 1013.98,1446.35 1012.48,1428.04 1015.61,1411.12 C 1016.56,1405.43 1018.94,1400.15 1020.84,1394.75 C 1025.1,1385.85 1032.66,1378.65 1041.71,1374.72 z" id="path60" style="opacity: 1; fill: rgb(2, 66, 130);"/>
    <path d="M 1280.82,1371.9 C 1291.65,1370.61 1303.73,1370.25 1313.05,1376.87 C 1321.56,1381.8 1327.57,1390.36 1329.75,1399.91 C 1323.41,1401.53 1317.19,1403.6 1310.73,1404.71 C 1309.1,1399.49 1306.46,1394.27 1301.76,1391.21 C 1295.38,1386.97 1286.41,1386.65 1279.94,1390.83 C 1272.97,1396.57 1269.16,1405.39 1267.85,1414.17 C 1266.25,1425.49 1266.44,1437.47 1270.88,1448.17 C 1273.41,1454.23 1278.27,1460.05 1285.02,1461.32 C 1296.81,1463.38 1309.13,1454.25 1311.12,1442.56 C 1317.65,1444.28 1324.1,1446.34 1330.65,1448 C 1328.73,1456.59 1324.85,1465.2 1317.59,1470.57 C 1297.19,1489.38 1259.7,1479.8 1249.68,1454.29 C 1245.46,1444.81 1245.28,1434.16 1245.32,1423.97 C 1245.84,1416.72 1245.87,1409.23 1248.66,1402.41 C 1250.59,1397.09 1253,1391.89 1256.51,1387.42 C 1262.44,1379.58 1271.38,1374.32 1280.82,1371.9 z" id="path62" style="opacity: 1; fill: rgb(2, 66, 130);"/>
    <path d="M 1376.49,1371.83 C 1382.29,1371.09 1388.16,1370.98 1394,1371.42 C 1408.52,1371.26 1421.58,1381.24 1428.36,1393.58 C 1434.39,1404.66 1435.52,1417.6 1435.19,1429.99 C 1434.66,1440.72 1432.71,1451.76 1426.95,1461.01 C 1423.92,1466.15 1419.13,1469.93 1414.34,1473.33 C 1404.31,1480.08 1391.59,1481.5 1379.87,1479.65 C 1369.77,1478.06 1360.68,1472.51 1353.72,1465.17 C 1346.1,1455.96 1342.62,1443.84 1342.55,1432.02 C 1342.42,1421.54 1341.92,1410.68 1345.83,1400.75 C 1350.23,1386.77 1361.93,1374.82 1376.49,1371.83 M 1382.47,1389.77 C 1372.4,1392.6 1366.3,1403.1 1365.04,1412.99 C 1363.72,1423.45 1363.54,1434.36 1366.59,1444.56 C 1368.27,1450.39 1372.1,1455.44 1376.98,1458.99 C 1384.33,1463.45 1394.32,1463.45 1401.49,1458.61 C 1407.99,1454.5 1410.82,1446.69 1412.3,1439.49 C 1414.13,1428.69 1413.93,1417.39 1411.09,1406.78 C 1409.09,1401.65 1406.84,1396.07 1401.99,1392.99 C 1396.42,1388.95 1389.03,1388.27 1382.47,1389.77 z" id="path64" style="opacity: 1; fill: rgb(2, 66, 130);"/>
    <path d="M 1679.5,1371.87 C 1687.86,1370.85 1696.39,1370.91 1704.72,1372.22 C 1714.06,1374.36 1722.37,1380.24 1728.13,1387.83 C 1733.21,1396.01 1736.79,1405.26 1737.56,1414.92 C 1739.22,1430.56 1737.94,1447.24 1729.99,1461.14 C 1727.97,1465.75 1723.77,1468.7 1720.01,1471.78 C 1712.35,1477.69 1702.55,1480.21 1693,1480.38 C 1683.8,1480.41 1674.26,1478.51 1666.52,1473.33 C 1661.97,1469.63 1657,1466.14 1654.05,1460.93 C 1647.72,1450.86 1645.6,1438.71 1645.46,1426.99 C 1645.21,1414.26 1647.54,1401.1 1654.26,1390.13 C 1660.14,1381.37 1668.79,1373.69 1679.5,1371.87 M 1686.47,1389.62 C 1677.87,1391.65 1671.54,1399.25 1669.21,1407.52 C 1666.89,1416.17 1666.93,1425.26 1667.51,1434.14 C 1668.33,1441.88 1670.32,1450.17 1676.19,1455.71 C 1682.76,1462.27 1693.63,1464.33 1701.96,1460.05 C 1707.73,1457.25 1712.09,1451.94 1714.11,1445.89 C 1717.39,1436.29 1717.17,1425.93 1716.39,1415.95 C 1715.56,1407.33 1712.37,1398.19 1705.02,1393.03 C 1699.71,1389.15 1692.78,1388.25 1686.47,1389.62 z" id="path66" style="opacity: 1; fill: rgb(2, 66, 130);"/>
    <path d="M 2106.49,1371.8 C 2114.3,1370.86 2122.23,1371.04 2130.03,1372 C 2143.66,1374.37 2154.38,1385.18 2159.71,1397.54 C 2164.69,1408.95 2165.02,1421.7 2164.4,1433.95 C 2163.3,1446.39 2159.85,1459.72 2150.23,1468.38 C 2140.04,1478.99 2124.04,1481.92 2109.96,1479.66 C 2100.13,1478.23 2090.8,1473.33 2084.16,1465.94 C 2074.61,1454.63 2071.79,1439.37 2071.8,1424.96 C 2072.03,1411.66 2074.82,1397.78 2083.01,1386.98 C 2088.25,1378.96 2097.16,1373.56 2106.49,1371.8 M 2112.49,1389.74 C 2106.35,1391.39 2101.2,1395.9 2098.24,1401.47 C 2094.98,1407.08 2094.32,1413.69 2093.77,1420.04 C 2093.3,1429.05 2093.66,1438.35 2096.89,1446.88 C 2099.6,1454.23 2106.11,1460.17 2113.86,1461.71 C 2121.19,1463.49 2129.33,1461.08 2134.56,1455.64 C 2139.15,1451.26 2141.32,1445.04 2142.41,1438.93 C 2143.99,1429.89 2143.77,1420.56 2142.25,1411.53 C 2140.92,1404.05 2137.19,1396.5 2130.57,1392.38 C 2125.26,1388.97 2118.54,1388.36 2112.49,1389.74 z" id="path68" style="opacity: 1; fill: rgb(2, 66, 130);"/>
    <path d="M 2366.53,1371.87 C 2374.37,1370.82 2382.32,1371.06 2390.16,1371.94 C 2400.79,1373.6 2409.61,1380.81 2415.69,1389.38 C 2421.02,1397.21 2423.95,1406.55 2424.68,1415.97 C 2425.79,1426.45 2425.28,1437.17 2422.64,1447.39 C 2420.38,1455.72 2416.36,1464.01 2409.44,1469.44 C 2401.78,1477.17 2390.57,1480.13 2379.98,1480.38 C 2368.41,1480.6 2356.52,1477.05 2347.91,1469.12 C 2343.76,1466.41 2341.6,1461.88 2339.22,1457.73 C 2333.75,1447.44 2332.25,1435.52 2332.4,1424.01 C 2332.46,1412.51 2334.95,1400.84 2340.81,1390.87 C 2345.92,1381.1 2355.77,1374.02 2366.53,1371.87 M 2373.43,1389.61 C 2362.9,1392.13 2356.21,1402.56 2354.99,1412.85 C 2353.63,1423.61 2353.41,1434.86 2356.77,1445.3 C 2359.21,1453.18 2365.75,1459.81 2373.89,1461.63 C 2382.69,1463.98 2392.52,1460.1 2397.63,1452.62 C 2403.3,1444.3 2403.95,1433.75 2403.81,1423.99 C 2403.67,1414.13 2402.32,1403.3 2395.22,1395.85 C 2389.81,1389.91 2381.12,1387.88 2373.43,1389.61 z" id="path70" style="opacity: 1; fill: rgb(2, 66, 130);"/>
    <path d="M 10.2,1372.55 C 17.03,1372.55 23.85,1372.59 30.68,1372.52 C 30.71,1401.84 30.7,1431.15 30.69,1460.47 C 45.28,1460.47 59.87,1460.48 74.46,1460.46 C 74.45,1466.46 74.44,1472.46 74.46,1478.46 C 53.04,1478.42 31.62,1478.46 10.19,1478.44 C 10.26,1443.14 10.24,1407.84 10.2,1372.55 z" id="path72" style="opacity: 1; fill: rgb(2, 66, 130);"/>
    <path d="M 92.82,1372.56 C 99.86,1372.56 106.9,1372.54 113.94,1372.57 C 113.88,1407.86 113.89,1443.15 113.93,1478.44 C 106.89,1478.45 99.84,1478.45 92.8,1478.43 C 92.84,1443.14 92.81,1407.85 92.82,1372.56 z" id="path74" style="opacity: 1; fill: rgb(2, 66, 130);"/>
    <path d="M 140.25,1372.56 C 161.91,1372.57 183.56,1372.54 205.22,1372.57 C 205.19,1378.67 205.21,1384.77 205.22,1390.88 C 190.52,1390.94 175.83,1390.89 161.13,1390.91 C 160.99,1400.2 161.19,1409.48 161.02,1418.77 C 169.44,1418.84 177.87,1418.79 186.3,1418.8 C 186.31,1424.78 186.29,1430.77 186.32,1436.76 C 177.91,1436.75 169.51,1436.77 161.1,1436.76 C 161.07,1450.65 161.08,1464.53 161.09,1478.43 C 154.14,1478.47 147.19,1478.45 140.24,1478.43 C 140.31,1443.14 140.28,1407.85 140.25,1372.56 z" id="path76" style="opacity: 1; fill: rgb(2, 66, 130);"/>
    <path d="M 222.44,1478.48 C 222.43,1443.16 222.41,1407.84 222.45,1372.53 C 246.06,1372.6 269.68,1372.54 293.3,1372.56 C 293.29,1378.67 293.28,1384.79 293.3,1390.92 C 276.71,1390.93 260.11,1390.86 243.51,1390.95 C 243.48,1398.78 243.49,1406.61 243.51,1414.45 C 253.69,1414.39 263.88,1414.46 274.07,1414.41 C 274.15,1419.73 274.07,1425.06 274.13,1430.4 C 263.92,1430.41 253.71,1430.41 243.5,1430.39 C 243.49,1440.42 243.49,1450.46 243.49,1460.5 C 260.09,1460.46 276.69,1460.48 293.3,1460.48 C 293.3,1466.46 293.27,1472.45 293.31,1478.44 C 269.69,1478.47 246.06,1478.4 222.44,1478.48 z" id="path78" style="opacity: 1; fill: rgb(2, 66, 130);"/>
    <path d="M 357.78,1372.57 C 364.68,1372.54 371.57,1372.59 378.47,1372.53 C 378.45,1407.84 378.43,1443.15 378.48,1478.46 C 371.58,1478.43 364.68,1478.45 357.78,1478.43 C 357.79,1443.14 357.79,1407.86 357.78,1372.57 z" id="path80" style="opacity: 1; fill: rgb(2, 66, 130);"/>
    <path d="M 404.9,1372.58 C 412.28,1372.54 419.66,1372.56 427.04,1372.57 C 431.99,1381.05 437.47,1389.24 441.88,1398.03 C 451.64,1412.98 460.3,1428.63 470.15,1443.53 C 470.13,1419.87 470.18,1396.22 470.12,1372.56 C 476.96,1372.54 483.8,1372.58 490.64,1372.53 C 490.62,1407.84 490.62,1443.16 490.64,1478.47 C 483.75,1478.42 476.86,1478.45 469.97,1478.44 C 462.91,1466.73 455.57,1455.19 448.67,1443.39 C 445.6,1437.81 441.5,1432.85 438.95,1426.99 C 434.62,1419.45 429.99,1412.08 425.61,1404.57 C 425.51,1429.2 425.58,1453.83 425.57,1478.46 C 418.68,1478.41 411.79,1478.48 404.91,1478.42 C 404.92,1443.14 404.93,1407.86 404.9,1372.58 z" id="path82" style="opacity: 1; fill: rgb(2, 66, 130);"/>
    <path d="M 607.12,1372.56 C 614.17,1372.55 621.22,1372.56 628.27,1372.56 C 628.27,1394.37 628.23,1416.19 628.28,1438 C 628.21,1444.58 630.09,1451.37 634.48,1456.39 C 639.87,1461.28 647.84,1462.27 654.73,1460.7 C 659.51,1459.67 664.29,1457.01 666.33,1452.36 C 669.92,1446.58 670.04,1439.61 670.09,1433.04 C 670.06,1412.88 670.12,1392.72 670.06,1372.57 C 677.16,1372.54 684.27,1372.57 691.37,1372.55 C 691.35,1395.04 691.38,1417.52 691.36,1440.01 C 691.33,1448.65 689.74,1457.58 684.95,1464.93 C 678.88,1473.2 669.21,1478.42 659.1,1479.75 C 649.29,1481.04 639.09,1480.48 629.69,1477.25 C 619.87,1474.23 611.98,1465.93 609.02,1456.14 C 607.02,1449.63 607.18,1442.74 607.15,1436.01 C 607.14,1414.86 607.18,1393.71 607.12,1372.56 z" id="path84" style="opacity: 1; fill: rgb(2, 66, 130);"/>
    <path d="M 715.5,1372.53 C 729,1372.67 742.49,1372.35 755.98,1372.82 C 763.4,1373.44 771.12,1373.78 777.96,1377.03 C 787.42,1381.56 793.64,1391.66 794.26,1402.02 C 794.49,1407.42 794.62,1413.12 792.19,1418.12 C 788.98,1425.22 781.86,1429.46 774.91,1432.27 C 780.89,1447.78 787.53,1463.08 793.97,1478.43 C 786.96,1478.44 779.95,1478.47 772.95,1478.42 C 769.22,1468.83 764.34,1459.69 761.33,1449.83 C 759.41,1445.13 757.54,1440.4 755.38,1435.81 C 748.99,1435.93 742.6,1435.85 736.22,1435.87 C 736.17,1450.05 736.22,1464.24 736.2,1478.43 C 729.3,1478.45 722.4,1478.42 715.5,1478.46 C 715.52,1443.15 715.51,1407.84 715.5,1372.53 M 736.2,1391.23 C 736.2,1400.72 736.21,1410.21 736.2,1419.71 C 742.47,1419.64 748.75,1419.82 755.03,1419.63 C 760.18,1419.57 765.05,1417.2 768.92,1413.93 C 773.34,1409.86 773.91,1402.42 770.25,1397.69 C 767.02,1393.36 761.42,1391.45 756.19,1391.33 C 749.52,1391.11 742.86,1391.28 736.2,1391.23 z" id="path86" style="opacity: 1; fill: rgb(2, 66, 130);"/>
    <path d="M 825.41,1412.55 C 828.95,1399.04 833.86,1385.93 837.91,1372.56 C 845.34,1372.55 852.77,1372.57 860.21,1372.54 C 871.39,1407.9 883.59,1442.94 894.27,1478.44 C 887.5,1478.44 880.73,1478.46 873.96,1478.43 C 871.53,1470.14 868.41,1462.08 865.98,1453.79 C 854.76,1453.77 843.55,1453.85 832.34,1453.75 C 829.4,1461.86 827.02,1470.14 824.68,1478.44 C 817.73,1478.44 810.78,1478.46 803.83,1478.42 C 811.11,1456.49 818.23,1434.51 825.41,1412.55 M 837.21,1438.3 C 845.11,1438.3 853,1438.29 860.9,1438.31 C 857.22,1426.15 853.8,1413.86 849.33,1401.95 C 844.8,1413.89 841.58,1426.3 837.21,1438.3 z" id="path88" style="opacity: 1; fill: rgb(2, 66, 130);"/>
    <path d="M 909.38,1478.46 C 909.37,1443.15 909.38,1407.85 909.38,1372.54 C 916.68,1372.56 924,1372.6 931.31,1372.51 C 938.75,1384.49 945.72,1396.77 953.48,1408.54 C 959.72,1420.62 967.26,1431.96 974.39,1443.52 C 974.55,1419.86 974.42,1396.2 974.46,1372.54 C 981.35,1372.58 988.24,1372.54 995.14,1372.57 C 995.09,1407.86 995.1,1443.15 995.13,1478.43 C 988.16,1478.4 981.2,1478.55 974.24,1478.36 C 968.45,1468.06 961.54,1458.43 956.01,1447.99 C 952.77,1441.16 948.13,1435.16 944.38,1428.63 C 939.67,1420.72 934.84,1412.88 930.21,1404.93 C 929.46,1414.26 930.06,1423.64 929.87,1433 C 929.89,1448.14 929.84,1463.29 929.9,1478.44 C 923.06,1478.46 916.22,1478.42 909.38,1478.46 z" id="path90" style="opacity: 1; fill: rgb(2, 66, 130);"/>
    <path d="M 1117.17,1372.56 C 1140.66,1372.52 1164.15,1372.65 1187.64,1372.49 C 1187.73,1378.65 1187.67,1384.81 1187.68,1390.98 C 1171.06,1390.95 1154.43,1390.71 1137.83,1391.1 C 1137.88,1398.86 1137.84,1406.63 1137.85,1414.41 C 1148.05,1414.44 1158.26,1414.42 1168.48,1414.41 C 1168.41,1419.74 1168.43,1425.08 1168.46,1430.42 C 1158.28,1430.37 1148.09,1430.44 1137.91,1430.38 C 1137.75,1440.39 1137.94,1450.39 1137.8,1460.4 C 1154.44,1460.59 1171.08,1460.39 1187.72,1460.5 C 1187.63,1466.48 1187.7,1472.46 1187.69,1478.46 C 1164.18,1478.42 1140.67,1478.46 1117.16,1478.44 C 1117.24,1443.14 1117.22,1407.85 1117.17,1372.56 z" id="path92" style="opacity: 1; fill: rgb(2, 66, 130);"/>
    <path d="M 1454.24,1372.57 C 1467.82,1372.63 1481.42,1372.35 1495,1372.84 C 1503.54,1373.5 1512.71,1373.98 1520.04,1378.95 C 1528.62,1384.6 1533.09,1394.99 1533.36,1405.03 C 1533.47,1411.57 1531.94,1418.55 1527.4,1423.49 C 1523.56,1427.7 1518.33,1430.2 1513.26,1432.6 C 1516.84,1439.65 1519.46,1447.14 1522.58,1454.4 C 1525.78,1462.49 1529.43,1470.38 1532.72,1478.43 C 1525.72,1478.46 1518.73,1478.42 1511.74,1478.46 C 1509.73,1473.42 1507.48,1468.48 1505.31,1463.53 C 1502.29,1454.05 1498,1445.06 1494.25,1435.87 C 1487.76,1435.88 1481.27,1435.87 1474.79,1435.88 C 1474.79,1450.06 1474.76,1464.25 1474.81,1478.44 C 1467.95,1478.43 1461.09,1478.46 1454.23,1478.44 C 1454.31,1443.15 1454.29,1407.86 1454.24,1372.57 M 1474.79,1391.25 C 1474.75,1400.71 1474.85,1410.17 1474.74,1419.63 C 1481.85,1419.66 1488.98,1419.98 1496.08,1419.42 C 1503.37,1418.52 1511.46,1413.11 1511.39,1405.04 C 1511.53,1397.84 1504.86,1392.23 1498.06,1391.62 C 1490.33,1390.86 1482.54,1391.35 1474.79,1391.25 z" id="path94" style="opacity: 1; fill: rgb(2, 66, 130);"/>
    <path d="M 1552.49,1372.52 C 1566.32,1372.69 1580.17,1372.36 1594.01,1372.73 C 1602.17,1373.31 1610.75,1373.83 1618.05,1377.95 C 1625.74,1382.2 1631.25,1390.19 1632.16,1398.98 C 1633.2,1408.24 1631.16,1418.52 1624.39,1425.33 C 1619.66,1429.9 1613.89,1433.54 1607.5,1435.22 C 1596.26,1437.47 1584.75,1436.61 1573.37,1436.73 C 1573.3,1450.63 1573.34,1464.54 1573.36,1478.44 C 1566.39,1478.46 1559.43,1478.41 1552.48,1478.47 C 1552.5,1443.15 1552.49,1407.83 1552.49,1372.52 M 1573.31,1391.04 C 1573.37,1400.6 1573.33,1410.16 1573.34,1419.72 C 1579.85,1419.64 1586.37,1419.82 1592.89,1419.63 C 1598.07,1419.51 1603.01,1417.24 1606.88,1413.86 C 1611.61,1409.18 1611.8,1400.65 1607.09,1395.89 C 1603.53,1392.06 1598.02,1391.2 1593.06,1391.03 C 1586.48,1390.82 1579.89,1390.83 1573.31,1391.04 z" id="path96" style="opacity: 1; fill: rgb(2, 66, 130);"/>
    <path d="M 1757.7,1372.55 C 1770.79,1372.65 1783.89,1372.36 1796.99,1372.8 C 1806.35,1373.5 1816.58,1373.71 1824.42,1379.61 C 1834.87,1388.31 1839.09,1403.71 1834.56,1416.53 C 1831.7,1424.33 1824.43,1429.5 1816.94,1432.38 C 1819.99,1439.84 1823.24,1447.23 1826.13,1454.77 C 1828.53,1462.96 1832.61,1470.5 1835.69,1478.44 C 1828.82,1478.43 1821.95,1478.48 1815.09,1478.41 C 1809.14,1464.23 1803.08,1450.09 1797.23,1435.87 C 1790.9,1435.91 1784.58,1435.77 1778.27,1435.95 C 1778.34,1450.12 1778.27,1464.28 1778.31,1478.45 C 1771.44,1478.44 1764.56,1478.45 1757.7,1478.44 C 1757.74,1443.14 1757.72,1407.85 1757.7,1372.55 M 1778.31,1391.21 C 1778.28,1400.71 1778.31,1410.21 1778.3,1419.72 C 1784.96,1419.59 1791.65,1419.94 1798.31,1419.52 C 1804.43,1418.67 1811.19,1415.81 1813.95,1409.91 C 1816.86,1403.17 1812.76,1394.98 1805.86,1392.85 C 1796.99,1389.95 1787.46,1391.74 1778.31,1391.21 z" id="path98" style="opacity: 1; fill: rgb(2, 66, 130);"/>
    <path d="M 1880.03,1372.6 C 1887.48,1372.49 1894.94,1372.61 1902.41,1372.53 C 1906.3,1384.33 1909.89,1396.24 1913.99,1407.97 C 1921.7,1431.4 1928.34,1455.15 1936.5,1478.44 C 1929.69,1478.42 1922.88,1478.49 1916.08,1478.4 C 1913.65,1470.12 1910.56,1462.06 1908.11,1453.79 C 1896.91,1453.75 1885.71,1453.87 1874.51,1453.74 C 1871.72,1461.96 1868.98,1470.19 1866.34,1478.47 C 1859.57,1478.41 1852.8,1478.47 1846.04,1478.43 C 1850.68,1463.9 1855.97,1449.55 1859.85,1434.79 C 1866.53,1414.04 1873.54,1393.4 1880.03,1372.6 M 1879.33,1438.3 C 1887.27,1438.3 1895.23,1438.3 1903.18,1438.29 C 1898.94,1426.54 1895.55,1414.5 1891.39,1402.73 C 1886.63,1414.29 1883.78,1426.6 1879.33,1438.3 z" id="path100" style="opacity: 1; fill: rgb(2, 66, 130);"/>
    <path d="M 1931.64,1372.55 C 1958.48,1372.59 1985.32,1372.52 2012.16,1372.58 C 2012.15,1378.68 2012.14,1384.78 2012.17,1390.89 C 2002.25,1390.97 1992.35,1390.86 1982.44,1390.94 C 1982.41,1420.11 1982.42,1449.28 1982.43,1478.46 C 1975.41,1478.44 1968.4,1478.42 1961.39,1478.47 C 1961.37,1449.28 1961.41,1420.09 1961.37,1390.91 C 1951.45,1390.92 1941.54,1390.89 1931.63,1390.92 C 1931.64,1384.79 1931.65,1378.67 1931.64,1372.55 z" id="path102" style="opacity: 1; fill: rgb(2, 66, 130);"/>
    <path d="M 2030.55,1372.55 C 2037.57,1372.56 2044.6,1372.56 2051.63,1372.55 C 2051.62,1407.85 2051.6,1443.16 2051.64,1478.46 C 2044.61,1478.43 2037.58,1478.44 2030.56,1478.45 C 2030.58,1443.15 2030.59,1407.85 2030.55,1372.55 z" id="path104" style="opacity: 1; fill: rgb(2, 66, 130);"/>
    <path d="M 2183.26,1372.58 C 2190.79,1372.56 2198.32,1372.53 2205.86,1372.59 C 2211.58,1381.56 2216.23,1391.12 2221.96,1400.09 C 2227.87,1408.96 2233.15,1418.23 2238.73,1427.31 C 2241.85,1432.82 2245.73,1437.86 2248.32,1443.66 C 2248.51,1419.96 2248.32,1396.24 2248.42,1372.54 C 2255.44,1372.57 2262.47,1372.58 2269.51,1372.53 C 2269.52,1407.84 2269.5,1443.15 2269.52,1478.47 C 2262.51,1478.47 2255.49,1478.33 2248.49,1478.55 C 2243.43,1468.85 2237.1,1459.89 2231.69,1450.38 C 2225.43,1439.37 2217.85,1429.14 2212.26,1417.76 C 2209.63,1413.44 2207.1,1409.07 2204.41,1404.81 C 2204.27,1429.35 2204.36,1453.9 2204.36,1478.45 C 2197.34,1478.44 2190.32,1478.43 2183.3,1478.46 C 2183.29,1443.16 2183.36,1407.87 2183.26,1372.58 z" id="path106" style="opacity: 1; fill: rgb(2, 66, 130);"/>
    <path d="M 2443.9,1372.58 C 2465.55,1372.55 2487.21,1372.56 2508.87,1372.57 C 2508.8,1378.68 2508.85,1384.8 2508.84,1390.92 C 2494.32,1390.98 2479.81,1390.75 2465.3,1391.04 C 2465.3,1400.3 2465.31,1409.56 2465.3,1418.82 C 2473.69,1418.78 2482.09,1418.83 2490.5,1418.78 C 2490.56,1424.78 2490.51,1430.78 2490.53,1436.78 C 2482.12,1436.72 2473.73,1436.8 2465.33,1436.73 C 2465.27,1450.64 2465.31,1464.54 2465.31,1478.45 C 2458.16,1478.43 2451.01,1478.47 2443.87,1478.42 C 2443.92,1443.14 2443.87,1407.86 2443.9,1372.58 z" id="path108" style="opacity: 1; fill: rgb(2, 66, 130);"/>
    <path d="M 2571.91,1372.58 C 2578.99,1372.54 2586.08,1372.55 2593.17,1372.58 C 2593.13,1407.86 2593.12,1443.14 2593.18,1478.42 C 2586.07,1478.46 2578.98,1478.45 2571.9,1478.42 C 2572.12,1443.14 2571.85,1407.87 2571.91,1372.58 z" id="path110" style="opacity: 1; fill: rgb(2, 66, 130);"/>
    <path d="M 2619.13,1372.57 C 2626.47,1372.55 2633.81,1372.56 2641.17,1372.56 C 2648.46,1384.37 2655.31,1396.46 2662.96,1408.05 C 2669.33,1420.27 2676.86,1431.85 2684.23,1443.49 C 2684.27,1419.85 2684.27,1396.21 2684.23,1372.57 C 2691.06,1372.53 2697.89,1372.6 2704.74,1372.53 C 2704.83,1407.83 2704.7,1443.13 2704.8,1478.43 C 2697.9,1478.44 2691.01,1478.47 2684.12,1478.41 C 2678.18,1468.28 2671.55,1458.56 2665.87,1448.27 C 2662.58,1441.15 2657.73,1434.94 2653.87,1428.15 C 2649.15,1420.27 2644.41,1412.4 2639.69,1404.52 C 2639.69,1429.17 2639.71,1453.82 2639.68,1478.47 C 2632.82,1478.41 2625.97,1478.46 2619.13,1478.43 C 2619.17,1443.14 2619.18,1407.86 2619.13,1372.57 z" id="path112" style="opacity: 1; fill: rgb(2, 66, 130);"/>
    <path d="M 2729.66,1372.56 C 2742.42,1372.56 2755.18,1372.55 2767.94,1372.56 C 2778.62,1372.61 2789.73,1375.86 2797.57,1383.4 C 2811.28,1395.57 2816.14,1415.22 2814.05,1432.96 C 2812.87,1442.62 2809.61,1452.07 2804.16,1460.15 C 2798.87,1468.21 2790.18,1473.51 2781.02,1476.05 C 2771.32,1479.18 2761.04,1478.34 2751.02,1478.44 C 2743.89,1478.44 2736.76,1478.44 2729.65,1478.44 C 2729.69,1443.15 2729.66,1407.85 2729.66,1372.56 M 2750.67,1390.71 C 2750.67,1413.85 2750.64,1436.99 2750.68,1460.13 C 2757.13,1459.92 2763.67,1460.61 2770.09,1459.49 C 2778.01,1457.93 2784.48,1451.94 2788.04,1444.86 C 2792.91,1435.03 2793.97,1423.41 2791.21,1412.82 C 2789.4,1405.39 2783.93,1399.4 2777.72,1395.27 C 2769.68,1390.09 2759.8,1390.6 2750.67,1390.71 z" id="path114" style="opacity: 1; fill: rgb(2, 66, 130);"/>
    <path d="M 2835.6,1372.54 C 2842.63,1372.56 2849.66,1372.56 2856.7,1372.55 C 2856.68,1407.83 2856.56,1443.11 2856.76,1478.39 C 2849.7,1478.51 2842.65,1478.41 2835.61,1478.45 C 2835.62,1443.15 2835.63,1407.85 2835.6,1372.54 z" id="path116" style="opacity: 1; fill: rgb(2, 66, 130);"/>
    <path d="M 2892.11,1417.98 C 2897.01,1402.84 2902.12,1387.76 2906.87,1372.57 C 2914.3,1372.54 2921.73,1372.58 2929.18,1372.55 C 2935.38,1392.07 2941.96,1411.46 2948.15,1430.99 C 2951.14,1439.97 2954.46,1448.88 2956.57,1458.13 C 2958.63,1464.96 2961.14,1471.64 2963.3,1478.44 C 2956.51,1478.43 2949.73,1478.48 2942.96,1478.41 C 2940.54,1470.14 2937.39,1462.1 2934.98,1453.82 C 2923.77,1453.72 2912.57,1453.88 2901.38,1453.74 C 2898.54,1461.94 2895.77,1470.16 2893.15,1478.44 C 2886.37,1478.45 2879.59,1478.46 2872.82,1478.42 C 2876.37,1467.66 2880.02,1456.94 2883.39,1446.13 C 2886.24,1436.73 2890.04,1427.61 2892.11,1417.98 M 2918.19,1401.81 C 2913.99,1413.91 2910.44,1426.23 2906.14,1438.3 C 2914.05,1438.3 2921.97,1438.3 2929.9,1438.3 C 2925.19,1426.38 2923.03,1413.65 2918.19,1401.81 z" id="path118" style="opacity: 1; fill: rgb(2, 66, 130);"/>
  </g>
  <g id="#f8c301ff">
    <path d="M 1211.39,12.24 C 1780.29,12.24 2349.18,12.26 2918.08,12.23 C 2927.6,11.74 2937.36,14.22 2945.16,19.81 C 2949.34,22.94 2953.87,26.03 2956.21,30.9 C 2960.71,38.09 2963.22,46.44 2963.3,54.94 C 2963.32,388.61 2963.29,722.28 2963.32,1055.96 C 2963.36,1065.04 2960.87,1074.16 2955.8,1081.73 C 2949.31,1090.94 2939.13,1097.56 2927.99,1099.38 C 2919.04,1100.59 2910,1100.08 2901.02,1100.18 C 2753.67,1100.15 2606.3,1100.18 2458.96,1100.18 C 2451.28,1100.46 2443.63,1099.39 2435.98,1100.17 C 2029.65,1100.18 1623.32,1100.17 1216.98,1100.18 C 1215.09,1100.12 1213.22,1099.92 1211.36,1099.73 C 1211.46,737.23 1211.41,374.74 1211.39,12.24 M 2441.67,147.86 C 2437.28,150.86 2432.27,152.81 2427.96,155.92 C 2421.3,160.51 2414.82,165.41 2408.89,170.92 C 2404.79,175.15 2400.55,179.24 2396.39,183.4 C 2390.42,188.81 2385.51,195.22 2380.33,201.35 C 2375.92,206.47 2372.97,212.59 2368.88,217.94 C 2361.26,229.93 2355.3,242.91 2349.89,256.02 C 2344.22,270.08 2340.62,284.81 2336.82,299.45 C 2324.2,351.26 2320.49,404.78 2319.71,457.95 C 2319.47,508.3 2319.67,558.66 2319.6,609.01 C 2319.52,649.17 2319.3,689.41 2323.16,729.42 C 2326.04,761.63 2331.13,793.73 2339.88,824.9 C 2342.29,831.58 2343.19,838.69 2345.86,845.3 C 2352.23,862.9 2359.72,880.27 2369.99,895.98 C 2372.19,899.42 2374.41,902.85 2376.48,906.39 C 2385.52,919.47 2396.97,930.62 2408.37,941.63 C 2414.93,947.63 2422.14,952.97 2430,957.17 C 2451.97,971.17 2477.34,978.95 2502.89,983.12 C 2516.16,985.32 2529.57,986.76 2543.04,986.81 C 2556.34,987.29 2569.67,987.58 2582.99,987.01 C 2615.74,986.56 2649.41,979.4 2677,961.05 C 2683.27,956.68 2689.86,952.69 2695.38,947.33 C 2709.01,933.11 2722.58,918.37 2731.88,900.84 C 2743.21,882.7 2752.12,863.11 2759.14,842.93 C 2761.66,836.5 2762.61,829.63 2764.93,823.14 C 2778.08,775.67 2782.68,726.2 2782.6,677.07 C 2737.25,677.19 2691.91,677.11 2646.57,677.22 C 2646.64,691.82 2646.42,706.43 2645.56,721.01 C 2644.04,748.43 2641.39,776.04 2633.78,802.53 C 2633,806.5 2631.89,810.39 2630.34,814.13 C 2623.7,831.18 2612.22,847.11 2595.89,855.97 C 2578.64,863.52 2559.05,862.75 2540.94,859.11 C 2529.01,857.12 2517.78,851.96 2507.82,845.22 C 2499.34,838.79 2491.86,831.12 2485.27,822.79 C 2479.19,813.87 2474.05,804.16 2471.1,793.75 C 2461.38,765.23 2458.63,734.91 2457.65,704.98 C 2457.32,673.98 2457.58,642.98 2457.5,611.98 C 2457.52,546.66 2457.45,481.34 2457.54,416.03 C 2458.03,384.85 2460.91,353.29 2470.82,323.55 C 2471.81,319.83 2472.72,316.07 2474.52,312.64 C 2480.36,299.34 2487.55,286.25 2498.39,276.35 C 2513.05,260.36 2534.61,251.92 2555.98,250.39 C 2569.04,249.14 2582.63,250.11 2594.88,255.15 C 2609.17,261.38 2619.93,274.03 2625.77,288.29 C 2629.34,297.43 2632.34,306.88 2633.68,316.63 C 2639.15,344.32 2640.69,372.63 2640.59,400.81 C 2655.41,400.91 2670.21,401.01 2685.04,400.82 C 2716.78,400.75 2748.53,400.89 2780.28,400.7 C 2779.83,365.29 2777.7,329.72 2770.11,295.04 C 2767.88,283.39 2763.94,272.19 2761.2,260.68 C 2755.11,243.23 2747.74,226.05 2737.46,210.63 C 2731.35,201.48 2725.63,191.93 2717.54,184.35 C 2704.73,171.37 2691.48,158.13 2674.8,150.22 C 2658.9,140.92 2641.29,134.95 2623.39,130.86 C 2593.42,124.39 2562.55,123.51 2532.03,124.95 C 2500.87,126.69 2469.3,132.77 2441.67,147.86 M 1391.78,142.53 C 1392,194.69 1391.81,246.86 1391.87,299.02 C 1391.86,522.58 1391.89,746.14 1391.86,969.69 C 1532.34,969.68 1672.83,969.75 1813.31,969.66 C 1813.21,929.32 1813.31,888.98 1813.26,848.64 C 1718.17,848.65 1623.08,848.68 1527.99,848.63 C 1527.83,834.42 1527.96,820.21 1527.92,806 C 1527.98,584.79 1527.8,363.58 1528.01,142.38 C 1482.6,142.48 1437.18,142.19 1391.78,142.53 M 1998.16,142.38 C 1998.15,418.16 1998.15,693.94 1998.16,969.72 C 2043.68,969.69 2089.21,969.68 2134.74,969.72 C 2134.72,693.94 2134.78,418.16 2134.71,142.38 C 2089.19,142.38 2043.68,142.39 1998.16,142.38 z" id="path121" style="opacity: 1; fill: rgb(248, 195, 1);"/>
  </g>
</svg>